<?xml version="1.0" standalone="no"?>
<!DOCTYPE svg PUBLIC "-//W3C//DTD SVG 1.1//EN" "http://www.w3.org/Graphics/SVG/1.1/DTD/svg11.dtd" >
<svg>
<metadata>
Created by FontForge 20110222 at Fri Aug 10 23:39:30 2012
 By Stefan Warting
Copyright 1989, 2001, 2002 Adobe Systems Incorporated. All rights reserved. Charlemagne is either a registered trademark or a trademark of Adobe Systems Incorporated in the United States and/or other countries.
</metadata>
<defs>
<font id="CharlemagneStd-Bold" horiz-adv-x="610" >
  <font-face 
    font-family="Charlemagne Std"
    font-weight="700"
    font-stretch="normal"
    units-per-em="1000"
    panose-1="4 2 7 5 6 7 2 2 2 4"
    ascent="704"
    descent="-296"
    x-height="704"
    cap-height="704"
    bbox="-103 -261.332 1217 927"
    underline-thickness="50"
    underline-position="-50"
    stemh="32"
    stemv="114"
    unicode-range="U+0020-FB02"
  />
<missing-glyph horiz-adv-x="500" 
d="M0 0v700h500v-700h-500zM250 395l170 255h-340zM280 350l170 -255v510zM80 50h340l-170 255zM50 605v-510l170 255z" />
    <glyph glyph-name=".notdef" horiz-adv-x="500" 
d="M0 0v700h500v-700h-500zM250 395l170 255h-340zM280 350l170 -255v510zM80 50h340l-170 255zM50 605v-510l170 255z" />
    <glyph glyph-name="space" unicode=" " horiz-adv-x="250" 
 />
    <glyph glyph-name="exclam" unicode="!" horiz-adv-x="360" 
d="M179 194l-40 -12c1 53 -12 438 -24 510c55 5 88 9 138 17c-15 -68 -68 -433 -74 -515zM221 -1l-110 -14l-3 107l107 13z" />
    <glyph glyph-name="quotedbl" unicode="&#x22;" horiz-adv-x="284" 
d="M89 474l-30 -6c-9 96 -20 181 -34 259l98 -11c-11 -74 -24 -162 -34 -242zM225 474l-31 -6c-9 96 -20 181 -34 259l99 -11c-11 -74 -24 -162 -34 -242z" />
    <glyph glyph-name="numbersign" unicode="#" horiz-adv-x="550" 
d="M213 335h112c4 39 6 66 9 105c-40 0 -72 0 -112 -2c-4 -38 -6 -65 -9 -103zM35 274l8 61h118c4 37 6 64 8 101c-53 -3 -91 -7 -128 -11l8 61h123c4 63 9 135 10 172l68 5c-7 -43 -16 -113 -23 -177h109c4 63 9 135 10 172l68 5c-7 -43 -16 -113 -23 -177h124l-8 -51
c-40 3 -68 5 -121 5c-4 -38 -6 -66 -9 -105h133l-8 -51c-43 4 -71 5 -128 5c-5 -71 -9 -157 -10 -199l-68 -4c8 49 17 130 25 203c-40 0 -71 -1 -111 -3c-4 -70 -9 -154 -10 -196l-68 -4c8 48 17 126 24 198c-48 -3 -87 -6 -121 -10z" />
    <glyph glyph-name="dollar" unicode="$" horiz-adv-x="531" 
d="M271 -155l-46 -9c7 53 13 106 24 182c-14 -2 -38 -3 -57 0l-19 -173l-48 -9c9 35 18 73 32 184c-31 4 -68 15 -82 25c-3 -15 -5 -27 -10 -53l-23 -5c6 44 13 185 11 217l23 -3c0 -11 2 -48 3 -75c16 -25 48 -54 84 -64l29 291c-64 40 -109 83 -109 169
c0 64 36 140 138 164l6 163l44 7c-6 -39 -10 -72 -16 -164c13 1 33 1 53 0l12 157l48 7c-11 -42 -16 -78 -27 -168c33 -5 61 -15 75 -20c3 10 6 25 8 35l24 3c-6 -30 -15 -103 -15 -197l-23 8v60c-8 29 -45 65 -72 73l-23 -259c67 -39 124 -93 124 -189
c0 -90 -63 -161 -158 -180zM201 461l17 194c-33 -7 -70 -48 -70 -98c0 -48 21 -77 53 -96zM285 411l22 249c-22 4 -45 4 -54 1l-21 -222zM307 286l-23 -228c40 9 85 51 85 112c0 56 -24 90 -62 116zM223 335l-28 -282c20 -2 44 -2 55 0l25 253z" />
    <glyph glyph-name="percent" unicode="%" horiz-adv-x="765" 
d="M292 528c0 32 -11 145 -86 145c-39 0 -80 -32 -80 -121c0 -38 13 -144 88 -144c29 0 78 28 78 120zM200 379c-96 0 -150 52 -150 148c0 94 71 173 168 173c99 0 150 -53 150 -147c0 -97 -78 -174 -168 -174zM225 0l-80 -6c33 44 203 346 245 420c34 60 158 268 160 286
l79 2c-34 -39 -162 -250 -210 -334c-53 -92 -160 -296 -194 -368zM547 0c-95 0 -150 53 -150 148c0 93 71 172 168 172c98 0 150 -51 150 -147c0 -98 -77 -173 -168 -173zM562 29c28 0 77 28 77 121c0 26 -10 143 -86 143c-39 0 -80 -31 -80 -120c0 -33 13 -144 89 -144z
" />
    <glyph glyph-name="ampersand" unicode="&#x26;" horiz-adv-x="814" 
d="M758 -16l-48 -12c-50 24 -102 68 -152 103c-50 -45 -127 -91 -251 -91c-137 0 -244 76 -244 179s97 173 179 204c-68 63 -112 127 -112 185c0 91 97 164 215 164c128 0 192 -72 192 -141s-76 -142 -176 -195c66 -72 165 -173 217 -226c28 44 54 138 46 193
c-20 4 -51 8 -77 11l-7 21c34 -2 84 -4 129 -4c31 0 109 2 122 4l-7 -21c-22 -2 -59 -7 -74 -11c-10 -66 -40 -139 -104 -219c64 -66 116 -116 152 -144zM178 200c0 -101 84 -167 174 -167c82 0 143 35 176 68c-89 68 -185 163 -264 243c-54 -30 -86 -90 -86 -144zM441 562
c0 77 -58 119 -114 119c-59 0 -99 -39 -99 -106c0 -52 52 -114 107 -170c81 47 106 109 106 157z" />
    <glyph glyph-name="quoteright" unicode="&#x2019;" horiz-adv-x="230" 
d="M76 498l-27 -1c28 88 38 173 40 255l93 -33c-34 -60 -74 -152 -106 -221z" />
    <glyph glyph-name="parenleft" unicode="(" horiz-adv-x="350" 
d="M297 -126l-43 -7c-41 36 -178 192 -178 392c0 160 47 310 187 519l46 6c-47 -68 -140 -240 -140 -464c0 -256 83 -383 128 -446z" />
    <glyph glyph-name="parenright" unicode=")" horiz-adv-x="350" 
d="M53 777l43 7c41 -36 178 -192 178 -392c0 -160 -47 -310 -187 -519l-46 -6c47 68 140 240 140 464c0 256 -83 383 -128 446z" />
    <glyph glyph-name="asterisk" unicode="*" horiz-adv-x="410" 
d="M329 537l-73 -75c-18 57 -42 109 -51 129c-6 -19 -17 -81 -22 -128l-96 47c47 36 90 71 108 88c-22 1 -89 -1 -128 -4l29 97c38 -36 84 -72 102 -83c-7 23 -30 82 -46 125l100 10c-16 -55 -39 -112 -43 -133l2 -2c16 16 61 62 84 91l48 -89c-37 -2 -106 -7 -128 -11
c18 -13 75 -43 114 -62z" />
    <glyph glyph-name="plus" unicode="+" 
d="M342 579c-7 -61 -12 -134 -14 -211h207l-8 -53c-74 6 -125 5 -200 4c-1 -64 2 -152 5 -207l-68 -11c7 63 11 137 13 218c-77 -2 -141 -7 -202 -14l8 63h195c1 62 -2 150 -4 203z" />
    <glyph glyph-name="comma" unicode="," horiz-adv-x="320" 
d="M180 -175l-30 -4c20 76 23 130 3 165l-51 -2l-2 104l118 11c5 -93 2 -175 -38 -274z" />
    <glyph glyph-name="hyphen" unicode="-" horiz-adv-x="450" 
d="M78 400h302l-13 -48c-49 0 -224 -17 -297 -33z" />
    <glyph glyph-name="period" unicode="." horiz-adv-x="320" 
d="M221 7l-118 -22l-3 107l116 22z" />
    <glyph glyph-name="slash" unicode="/" horiz-adv-x="490" 
d="M86 0l-82 -6c33 43 203 346 245 420c34 60 158 268 160 286l78 1c-31 -35 -159 -249 -207 -333c-53 -92 -160 -296 -194 -368z" />
    <glyph glyph-name="zero" unicode="0" horiz-adv-x="676" 
d="M329 -16c-52 0 -139 15 -200 92c-77 97 -74 225 -74 251c0 219 129 389 291 389c94 0 159 -36 206 -99c49 -66 69 -153 69 -243c0 -219 -129 -390 -292 -390zM508 318c0 140 -41 360 -182 360c-118 0 -158 -167 -158 -296c0 -139 42 -360 182 -360c118 0 158 168 158 296
z" />
    <glyph glyph-name="one" unicode="1" horiz-adv-x="463" 
d="M301 397v-43c0 -131 2 -302 5 -322c20 -4 120 -13 141 -15l5 -21c-26 2 -162 4 -209 4c-49 0 -194 -2 -221 -4l4 21c15 1 134 13 160 15c4 43 5 204 5 303v67c0 33 -1 188 -5 233c-43 -2 -117 -15 -158 -21l-7 21c37 9 185 57 292 91c-5 -50 -12 -203 -12 -329z" />
    <glyph glyph-name="two" unicode="2" horiz-adv-x="578" 
d="M486 206l24 5c-4 -37 -14 -106 -22 -167c-7 -56 -6 -47 -12 -125l-22 7c-2 51 0 26 -5 71c-109 3 -176 3 -242 3h-214c128 90 180 138 218 175c101 99 147 195 147 283c0 158 -95 214 -163 214c-53 0 -78 -13 -93 -26c-7 -30 -20 -104 -23 -122l-24 -5
c11 69 21 166 21 254l23 -7c2 -24 3 -38 7 -64c14 4 31 8 49 10c19 3 39 4 61 4c165 0 258 -80 258 -203c0 -115 -76 -220 -180 -321c-27 -27 -99 -85 -149 -121v-2l104 3c80 2 187 17 211 37c8 24 21 68 26 97z" />
    <glyph glyph-name="three" unicode="3" horiz-adv-x="581" 
d="M106 542l-24 -6c9 56 17 180 22 236l21 -7c0 -19 1 -38 2 -61c41 -4 93 -4 152 -4h226c-60 -69 -180 -197 -220 -246c139 -37 228 -107 228 -203c0 -65 -28 -127 -89 -185c-47 -44 -127 -82 -230 -82c-28 0 -63 -1 -99 11c-8 -13 -11 -29 -14 -44l-23 -3
c10 50 17 171 16 230l23 -10c-1 -38 2 -59 4 -86c33 -50 95 -59 136 -59c91 0 167 78 167 168c0 111 -100 174 -224 203c27 28 147 159 202 228h-148c-54 0 -90 -6 -110 -13c-6 -13 -12 -35 -18 -67z" />
    <glyph glyph-name="four" unicode="4" horiz-adv-x="636" 
d="M358 210h-372c115 124 358 407 479 541c-5 -37 -9 -292 -9 -432v-45c36 0 89 7 106 17c10 29 19 84 24 103l23 2c-5 -40 -22 -110 -19 -261l-23 5c-1 22 -4 55 -7 65c-28 5 -64 5 -104 5v-33c0 -57 2 -124 5 -146c16 -3 88 -12 108 -14l5 -21c-22 2 -134 4 -183 4
c-34 0 -160 -2 -187 -4l4 21c15 2 118 12 145 14c3 29 5 97 5 143v36zM358 274v300c-53 -61 -169 -189 -262 -300h262z" />
    <glyph glyph-name="five" unicode="5" horiz-adv-x="576" 
d="M470 771l23 3c-13 -65 -24 -119 -34 -253l-23 7c0 27 2 58 0 84c-22 5 -73 9 -172 9h-104l-19 -122c90 -14 179 -32 254 -80c58 -37 101 -95 101 -159c0 -142 -136 -276 -313 -276c-38 0 -78 2 -108 10c-3 -7 -8 -23 -13 -42l-22 -4c10 57 16 172 16 229l23 -9
c0 -36 2 -72 4 -88c24 -35 65 -58 126 -58c83 0 176 57 176 177c0 81 -59 132 -88 152c-39 27 -96 52 -200 70l29 279h140c145 0 174 10 188 17c8 26 13 43 16 54z" />
    <glyph glyph-name="six" unicode="6" horiz-adv-x="631" 
d="M414 745l54 2c-123 -98 -290 -277 -290 -496c0 -158 75 -229 150 -229c77 0 128 53 128 154c0 126 -80 196 -188 202l14 23c123 18 287 -18 287 -184c0 -106 -96 -233 -266 -233c-141 0 -240 77 -240 235c0 194 146 390 351 526z" />
    <glyph glyph-name="seven" unicode="7" horiz-adv-x="536" 
d="M365 17l4 -21c-37 2 -108 4 -164 4c-41 0 -100 -2 -149 -4l6 21c27 3 77 10 91 15c18 50 101 223 155 324c53 99 129 242 135 255c-142 0 -317 3 -346 -17c-10 -26 -18 -68 -24 -95l-24 -8c16 116 23 184 27 283l23 -5c0 -19 1 -43 3 -61c20 -6 73 -8 219 -8
c97 0 177 0 217 1c-23 -58 -115 -232 -171 -366c-57 -136 -98 -266 -102 -303c22 -3 84 -13 100 -15z" />
    <glyph glyph-name="eight" unicode="8" horiz-adv-x="615" 
d="M289 -16c-167 0 -234 97 -234 170c0 116 108 180 174 212c-125 67 -142 118 -142 180c0 70 75 170 240 170c158 0 200 -82 200 -139c0 -67 -47 -132 -160 -179c152 -66 186 -141 186 -203c0 -123 -115 -211 -264 -211zM310 20c77 0 135 50 135 129c0 64 -23 126 -189 198
c-49 -38 -94 -84 -94 -172c0 -97 69 -155 148 -155zM329 416c51 23 96 71 96 144c0 93 -71 121 -122 121c-74 0 -120 -48 -120 -106c0 -87 77 -125 146 -159z" />
    <glyph glyph-name="nine" unicode="9" horiz-adv-x="630" 
d="M252 -40l-55 -2c85 92 243 280 243 498c0 154 -73 222 -141 222c-73 0 -132 -53 -132 -167c0 -112 80 -186 193 -179l-14 -23c-129 -33 -289 13 -289 174c0 99 89 233 270 233c129 0 235 -73 235 -232c0 -180 -151 -383 -310 -524z" />
    <glyph glyph-name="colon" unicode=":" horiz-adv-x="320" 
d="M221 6l-118 -22l-3 107l116 22zM221 300l-118 -22l-3 107l116 22z" />
    <glyph glyph-name="semicolon" unicode=";" horiz-adv-x="320" 
d="M100 88l118 11c5 -93 2 -175 -38 -274l-30 -4c20 76 23 130 3 165l-51 -2zM219 300l-116 -22l-3 107l114 22z" />
    <glyph glyph-name="less" unicode="&#x3c;" 
d="M511 107c-121 69 -347 184 -436 233v2c129 66 294 153 442 234l13 -53c-131 -68 -266 -135 -361 -179c103 -46 249 -112 368 -167z" />
    <glyph glyph-name="equal" unicode="=" 
d="M527 389c-74 6 -154 5 -229 4c-77 -2 -162 -7 -223 -14l8 63h215h237zM527 237c-74 6 -154 5 -229 4c-77 -2 -162 -7 -223 -14l8 63h215h237z" />
    <glyph glyph-name="greater" unicode="&#x3e;" 
d="M104 576c119 -68 344 -183 436 -233v-2c-130 -66 -292 -152 -442 -234l-13 53c131 68 266 135 361 179c-103 46 -249 112 -368 167z" />
    <glyph glyph-name="question" unicode="?" 
d="M279 167l-42 -10c-5 53 -17 105 -24 158c45 20 68 29 116 65c75 57 80 116 80 161c0 58 -39 141 -132 141c-75 0 -121 -44 -139 -72c-8 -20 -15 -51 -22 -94l-23 -7c12 96 18 221 18 303l23 -8c1 -38 2 -79 5 -109c50 15 96 21 144 21c178 0 250 -68 250 -143
c0 -88 -70 -148 -120 -186c-38 -29 -63 -38 -98 -60c-13 -27 -24 -100 -36 -160zM324 -2l-116 -14l-1 96l111 16z" />
    <glyph glyph-name="at" unicode="@" horiz-adv-x="889" 
d="M845 389c0 -168 -117 -284 -286 -278c0 11 -3 46 -6 62c-37 -31 -90 -66 -138 -66c-91 0 -120 52 -120 93c0 93 117 113 237 120c-2 21 -4 29 -7 47c-8 52 -26 98 -76 98c-28 0 -60 -16 -73 -23c-11 -40 -19 -66 -23 -81l-21 -4c9 59 16 106 16 182l21 -1
c2 -21 5 -41 8 -63c19 9 60 24 86 24c81 0 119 -51 128 -107c13 -77 23 -158 32 -205c3 -16 8 -25 25 -25c74 0 138 72 138 208c0 173 -143 295 -300 295c-230 0 -367 -151 -367 -373c0 -220 151 -349 319 -349c85 0 152 25 226 72l15 -25c-85 -58 -181 -90 -251 -90
c-195 0 -384 107 -384 367c0 247 185 436 434 436c202 0 367 -131 367 -314zM549 206c-5 33 -7 51 -11 84c-122 -16 -166 -32 -166 -86c0 -33 28 -53 75 -53c35 0 72 29 102 55z" />
    <glyph glyph-name="A" unicode="A" horiz-adv-x="712" 
d="M422 -4l5 21c35 3 70 7 101 14c-18 52 -89 264 -105 293c-35 0 -194 -7 -231 -13c-6 -14 -60 -203 -70 -280c25 -7 58 -11 86 -14l4 -21c-31 2 -122 4 -151 4c-26 0 -93 -2 -116 -4l3 21c29 3 59 8 86 14c36 63 235 601 249 639c-22 6 -55 10 -79 13l-1 21
c30 -2 113 -4 130 -4c42 0 142 2 171 4l-3 -21c-26 -3 -53 -7 -76 -13c12 -44 67 -201 105 -306c28 -77 90 -245 136 -333c29 -6 58 -10 88 -14l3 -21c-12 2 -113 4 -166 4c-29 0 -142 -2 -169 -4zM416 354c-22 66 -85 244 -102 299h-2c-31 -89 -96 -262 -106 -295z" />
    <glyph glyph-name="B" unicode="B" horiz-adv-x="683" 
d="M163 337v63c0 72 -3 228 -7 269c-34 6 -74 8 -103 10l-5 21c33 1 224 8 287 8c195 0 225 -83 225 -130c0 -29 -1 -54 -26 -94c-37 -58 -96 -90 -129 -104v-3c99 -16 205 -87 205 -193c0 -115 -94 -192 -233 -192c-14 0 -48 2 -84 4c-35 2 -72 4 -93 4
c-22 0 -123 -2 -152 -4l4 21c23 2 83 8 104 14c7 69 7 218 7 306zM271 347v-54c0 -86 7 -235 12 -248c23 -16 60 -21 80 -21c95 0 135 53 135 122c0 64 -41 141 -109 177c-40 21 -94 27 -118 24zM271 433v-56c31 0 82 6 120 34c37 27 58 75 58 126c0 86 -53 144 -135 144
c-16 0 -31 -2 -40 -6c-2 -10 -3 -152 -3 -242z" />
    <glyph glyph-name="C" unicode="C" horiz-adv-x="809" 
d="M742 475l-23 7c0 19 -3 66 -6 83c-19 44 -112 116 -241 116c-182 0 -297 -132 -297 -288c0 -195 161 -360 372 -360c76 0 166 12 237 54l-14 -43c-23 -19 -124 -60 -281 -60c-37 0 -146 4 -227 44c-130 64 -207 178 -207 306c0 138 70 240 158 299c104 70 197 83 298 83
c88 0 181 -18 209 -26c6 13 18 77 21 89l23 5c-15 -110 -21 -214 -22 -309z" />
    <glyph glyph-name="D" unicode="D" horiz-adv-x="940" 
d="M163 342v79c0 45 -2 228 -7 248c-26 5 -82 12 -106 14l-2 21c15 -2 123 -4 165 -4c35 0 154 4 231 4c117 0 216 -14 282 -46c117 -56 164 -151 164 -242c0 -211 -166 -418 -550 -418c-56 0 -268 -1 -292 -2l4 21c19 1 80 7 104 14c5 17 7 195 7 311zM277 372v-39
c0 -54 3 -242 7 -278c44 -17 83 -18 109 -18c191 0 374 112 374 325c0 85 -26 169 -109 231c-73 54 -193 74 -286 74c-23 0 -67 -2 -88 -6c-3 -15 -7 -245 -7 -289z" />
    <glyph glyph-name="E" unicode="E" horiz-adv-x="637" 
d="M163 343v46c0 90 -3 249 -7 280c-19 4 -80 11 -104 14l-4 21c24 -1 57 -2 90 -3c33 0 66 -1 88 -1c32 0 267 0 294 7c3 12 6 29 8 47l23 4c-5 -21 -18 -176 -20 -207l-22 7c0 7 1 52 0 72c-18 29 -172 42 -225 42c-3 -14 -7 -207 -7 -266v-20c86 0 183 7 207 16
c5 15 8 29 10 43l21 2c-3 -18 -21 -155 -26 -187l-19 8c1 21 2 47 2 67c-31 16 -109 22 -195 22v-20c0 -61 4 -279 7 -308c100 0 194 8 240 34c11 35 16 66 22 88l23 6c-7 -29 -29 -181 -33 -231l-21 4c0 27 0 45 -1 61c-29 5 -251 9 -314 9c-34 0 -113 -2 -152 -4l5 21
c16 1 76 7 103 14c4 18 7 202 7 312z" />
    <glyph glyph-name="F" unicode="F" horiz-adv-x="636" 
d="M163 328v62c0 90 -2 251 -5 279c-13 6 -76 11 -106 14l-4 21c35 -2 136 -4 175 -4c43 0 296 0 317 6c3 12 10 49 13 71l23 5c-8 -46 -16 -172 -17 -246l-23 8c0 16 -2 60 -5 79c-36 34 -196 47 -246 47c-5 -14 -8 -193 -8 -268v-22c49 0 179 4 211 14c5 15 10 40 14 59
l21 3c-6 -48 -14 -148 -16 -223l-21 6c0 21 -2 55 -5 85c-24 18 -147 25 -204 25v-30c0 -83 3 -260 8 -288c38 -8 87 -12 110 -14l4 -21c-35 2 -117 4 -184 4c-57 0 -132 -2 -167 -4l4 21c12 2 78 6 106 14c3 23 5 186 5 297z" />
    <glyph glyph-name="G" unicode="G" horiz-adv-x="905" 
d="M774 167v-32c0 -37 0 -90 2 -118c-58 -17 -188 -33 -256 -33c-65 0 -181 6 -265 48c-126 63 -199 176 -199 301c0 141 70 242 158 302c91 62 192 81 294 81c86 0 191 -13 224 -25c4 16 15 72 18 93l23 5c-6 -39 -17 -216 -14 -309l-23 12c-2 34 -7 69 -11 92
c-26 31 -97 97 -260 97c-174 0 -290 -129 -290 -289c0 -163 139 -372 355 -372c26 0 85 4 127 26c2 15 3 49 3 99v53c0 31 -1 62 -4 80c-20 2 -82 7 -101 11l-6 21c52 -2 129 -3 164 -3c48 0 145 1 157 3l-5 -21c-9 -1 -65 -6 -87 -11c-3 -17 -4 -83 -4 -111z" />
    <glyph glyph-name="H" unicode="H" horiz-adv-x="969" 
d="M163 322v94c0 32 -1 220 -5 253c-18 4 -80 12 -105 14l-5 21c17 -2 112 -4 176 -4c62 0 147 2 163 4l-5 -21c-28 -2 -81 -10 -97 -14c-4 -27 -8 -145 -8 -231v-49c25 0 375 -4 415 3v46c0 78 0 206 -6 231c-17 4 -70 12 -99 14l-5 21c17 -2 110 -4 172 -4
c65 0 149 2 167 4l-6 -21c-20 -2 -73 -10 -102 -14c-5 -20 -7 -226 -7 -253v-70c0 -116 2 -281 9 -315c20 -4 81 -13 101 -14l5 -21c-19 2 -121 4 -168 4c-43 0 -137 -2 -171 -4l5 21c15 1 81 10 99 14c6 34 6 161 6 267v58c-47 -1 -401 -20 -415 -23v-35
c0 -102 4 -230 8 -267c27 -6 77 -13 97 -14l5 -21c-21 2 -120 4 -163 4c-52 0 -146 -2 -176 -4l6 21c23 1 85 10 104 14c4 47 5 215 5 291z" />
    <glyph glyph-name="I" unicode="I" horiz-adv-x="440" 
d="M277 410v-62c0 -130 1 -297 5 -317c25 -6 85 -12 105 -14l5 -21c-22 2 -126 4 -188 4c-34 0 -126 -2 -156 -4l4 21c17 1 85 10 106 14c4 42 5 227 5 325v59c0 33 -1 220 -5 254c-20 4 -86 12 -105 14l-5 21c19 -2 111 -4 190 -4c51 0 137 2 154 4l-5 -21
c-20 -2 -69 -10 -105 -14c-4 -20 -5 -136 -5 -259z" />
    <glyph glyph-name="J" unicode="J" horiz-adv-x="419" 
d="M277 411v-53v-231c0 -83 -4 -128 -47 -202c-25 -43 -64 -88 -172 -170l-21 7c78 83 95 138 106 179c15 52 24 176 24 400v69c0 38 -1 207 -9 259c-24 4 -103 12 -132 14l-4 21c24 -2 142 -4 197 -4c54 0 139 2 173 4l-3 -21c-17 -2 -72 -10 -107 -14
c-4 -31 -5 -236 -5 -258z" />
    <glyph glyph-name="K" unicode="K" horiz-adv-x="800" 
d="M163 352v57c0 94 -2 233 -5 260c-24 4 -83 12 -107 14l-3 21c20 -2 135 -4 176 -4c37 0 145 2 164 4l-4 -21c-12 -2 -79 -10 -102 -14c-4 -32 -5 -187 -5 -269v-31c65 57 292 251 321 300c-23 6 -52 11 -74 14l-4 21c42 -2 113 -4 152 -4c29 0 75 2 109 4l-6 -21
c-15 -2 -40 -5 -66 -12c-43 -23 -229 -179 -271 -217c39 -62 327 -424 379 -472l-34 -11c-78 30 -415 375 -443 405c-19 -14 -50 -40 -63 -52v-24c0 -87 1 -227 5 -264c26 -11 99 -17 114 -19l2 -21c-19 2 -125 4 -179 4c-47 0 -142 -2 -171 -4l4 21c24 2 82 8 106 14
c3 44 5 178 5 321z" />
    <glyph glyph-name="L" unicode="L" horiz-adv-x="589" 
d="M163 367v58c0 57 -1 212 -5 244c-22 4 -81 12 -107 14l-3 21c25 -2 112 -4 173 -4c67 0 164 2 184 4l-5 -21c-24 -2 -78 -10 -118 -14c-4 -32 -5 -176 -5 -256v-36c0 -131 1 -323 5 -345c119 0 201 26 239 51c15 34 28 86 36 114l24 4c-20 -89 -39 -195 -53 -329l-23 5
c0 14 5 90 5 117c-22 2 -238 6 -292 6c-50 0 -142 -2 -170 -4l4 21c15 1 85 7 106 14c4 44 5 237 5 336z" />
    <glyph glyph-name="M" unicode="M" horiz-adv-x="1060" 
d="M726 -4l2 21c14 1 90 10 110 12c-2 37 -89 487 -101 561h-4c-27 -61 -224 -541 -254 -598c-28 62 -216 561 -228 599h-4c-26 -153 -85 -431 -81 -560c18 -4 74 -12 89 -14l4 -21c-14 2 -130 4 -149 4c-27 0 -78 -2 -111 -4l7 21c17 3 49 7 71 13c22 63 131 557 146 639
c-27 4 -88 12 -99 14l-6 21c13 -2 91 -4 144 -4c43 0 122 2 150 4l-4 -21c-28 -3 -56 -10 -75 -14c29 -91 151 -418 182 -494c29 57 202 471 204 494c-19 7 -50 11 -68 14l-5 21c32 -2 100 -4 135 -4c32 0 116 2 139 4l-3 -21c-14 -2 -63 -9 -84 -14
c19 -112 114 -575 131 -638c25 -6 65 -11 83 -14l5 -21c-34 2 -94 4 -141 4c-46 0 -156 -2 -185 -4z" />
    <glyph glyph-name="N" unicode="N" horiz-adv-x="908" 
d="M44 679l-4 21c56 2 150 3 228 7c22 -34 223 -286 240 -304c26 -28 185 -221 217 -248c0 111 -1 462 -21 514c-20 4 -73 12 -101 14l-5 21c19 -2 127 -4 149 -4s105 2 126 4l-4 -21c-13 -2 -49 -10 -76 -14c-12 -39 -17 -180 -19 -212c-3 -47 -11 -467 -17 -507
c-30 28 -307 351 -330 377c-14 15 -204 247 -237 285c-3 -20 9 -545 22 -581c15 -5 90 -12 109 -14l3 -21c-18 2 -122 4 -148 4c-29 0 -107 -2 -136 -4l3 21c28 4 60 7 83 14c17 42 28 603 28 636c-23 5 -72 10 -110 12z" />
    <glyph glyph-name="O" unicode="O" horiz-adv-x="947" 
d="M460 -16c-101 0 -216 17 -309 112c-73 75 -96 148 -96 242c0 198 163 378 439 378c106 0 190 -17 277 -81c79 -58 121 -155 121 -248c0 -245 -186 -403 -432 -403zM509 25c143 0 261 129 261 289c0 212 -147 364 -313 364c-137 0 -287 -92 -287 -298
c0 -179 144 -355 339 -355z" />
    <glyph glyph-name="P" unicode="P" horiz-adv-x="639" 
d="M275 418v-42c0 -85 1 -316 5 -345c24 -4 96 -11 127 -14l5 -21c-33 2 -145 4 -191 4c-50 0 -145 -2 -173 -4l4 21c15 2 80 9 106 14c4 44 5 257 5 350v40c0 32 -1 214 -5 248c-19 7 -83 12 -107 14l-3 21c30 0 176 1 222 1c109 0 192 -9 241 -29c89 -37 98 -98 98 -123
c0 -68 -29 -119 -69 -159c-66 -66 -174 -93 -210 -98l3 25c36 9 157 45 157 196c0 61 -30 111 -81 136c-33 16 -85 22 -129 22c-4 -29 -5 -171 -5 -257z" />
    <glyph glyph-name="Q" unicode="Q" horiz-adv-x="946" 
d="M961 -226l-23 -10c-62 11 -327 180 -381 228c-9 -1 -25 -3 -44 -5c-18 -1 -39 -3 -58 -3c-91 0 -216 18 -305 107c-93 93 -95 209 -95 249c0 186 150 376 435 376c123 0 231 -30 310 -108c84 -82 91 -183 91 -223c0 -162 -86 -280 -206 -348c55 -83 236 -237 276 -263z
M496 22c179 0 277 145 277 311c0 191 -155 346 -324 346c-147 0 -282 -106 -282 -302c0 -171 154 -355 329 -355z" />
    <glyph glyph-name="R" unicode="R" horiz-adv-x="748" 
d="M162 361v61c0 36 -1 228 -5 247c-17 4 -85 10 -107 12l-3 21l216 1c95 0 214 -1 282 -28c53 -21 86 -59 86 -114c0 -63 -64 -146 -141 -189c11 -25 172 -287 276 -397l-44 -7c-70 32 -336 339 -352 360c-38 -3 -79 -6 -96 -6v-26c0 -65 2 -219 5 -265
c17 -5 83 -12 105 -14l4 -21c-25 2 -126 4 -172 4c-41 0 -146 -2 -169 -4l4 21c14 1 78 7 106 14c4 29 5 225 5 330zM274 384v-31c36 0 79 3 122 19s114 62 114 161c0 64 -58 142 -231 142c-3 -41 -5 -220 -5 -291z" />
    <glyph glyph-name="S" unicode="S" horiz-adv-x="552" 
d="M86 -95l-23 -6c2 14 16 125 16 164c0 26 6 134 3 158l23 -6c-1 -13 4 -70 7 -88c27 -64 86 -109 155 -109c79 0 142 52 142 126c0 81 -63 121 -128 163c-98 64 -176 120 -176 233c0 78 58 176 206 176c59 0 111 -12 135 -18c7 24 12 54 18 81l23 3
c-14 -99 -24 -192 -24 -274l-23 10c0 34 -2 58 -4 76c-11 36 -63 90 -133 90c-86 0 -122 -55 -122 -100c0 -65 68 -100 144 -148c83 -52 167 -108 167 -234c0 -139 -110 -218 -246 -218c-48 0 -110 10 -138 25c-5 -19 -15 -67 -22 -104z" />
    <glyph glyph-name="T" unicode="T" horiz-adv-x="746" 
d="M316 368v45c0 74 -2 222 -5 245c-160 0 -232 -25 -259 -42c-8 -22 -14 -61 -20 -94l-23 -6c4 48 16 173 15 252l23 -4c1 -13 3 -44 6 -65c16 -3 188 -10 323 -10c145 0 318 7 334 10c4 12 10 43 14 62l25 4c-6 -23 -29 -228 -32 -258l-23 6c2 40 3 81 2 103
c-25 20 -164 42 -261 42c-3 -27 -5 -173 -5 -245v-45c0 -88 2 -257 5 -337c19 -3 110 -12 129 -14l4 -21c-24 2 -141 4 -196 4c-45 0 -165 -2 -194 -4l5 21c23 2 104 11 128 14c3 78 5 250 5 337z" />
    <glyph glyph-name="U" unicode="U" horiz-adv-x="857" 
d="M131 287v156c0 90 -2 198 -5 226c-21 5 -52 10 -79 14l-3 21c28 -2 92 -4 169 -4c46 0 123 2 148 4l-5 -21c-27 -3 -72 -8 -104 -14c-3 -17 -5 -144 -5 -230v-133c0 -212 90 -284 198 -284c66 0 110 16 144 48c54 51 67 139 67 259v92c0 32 -1 215 -5 248
c-23 4 -83 12 -109 14l-7 21c25 -2 100 -4 162 -4c52 0 105 2 122 4l-6 -21c-17 -4 -44 -8 -70 -14c-3 -15 -5 -140 -5 -167v-48c0 -39 2 -87 2 -123c0 -113 -21 -209 -98 -277c-46 -41 -110 -70 -209 -70c-207 0 -302 128 -302 303z" />
    <glyph glyph-name="V" unicode="V" horiz-adv-x="747" 
d="M-27 683l-4 21c32 -2 88 -4 144 -4c62 0 151 2 173 4l-5 -21c-21 -2 -77 -8 -94 -14c7 -34 203 -495 229 -527c23 46 204 421 224 527c-19 4 -60 9 -92 14l-5 21c14 -2 85 -4 146 -4c47 0 88 2 112 4l-5 -21c-19 -4 -35 -8 -61 -14c-21 -12 -347 -681 -360 -713
c-32 56 -291 645 -340 713c-13 4 -30 9 -62 14z" />
    <glyph glyph-name="W" unicode="W" horiz-adv-x="1054" 
d="M-23 683l-4 21c28 -2 70 -4 147 -4c85 0 138 2 161 4l-5 -21c-14 -3 -67 -10 -91 -14c10 -44 121 -465 139 -511h2c12 34 157 392 179 485c-29 6 -81 13 -98 16l-5 21c38 -2 84 -4 142 -4c62 0 119 2 143 4l-3 -21c-30 -5 -61 -8 -80 -16c22 -57 149 -407 182 -491h2
c13 45 132 420 138 517c-29 6 -61 9 -94 14l-5 21c21 -2 71 -4 131 -4c58 0 99 2 130 4l-3 -21c-22 -3 -47 -8 -64 -14c-29 -31 -248 -687 -258 -721c-27 58 -210 515 -239 598c-34 -86 -185 -474 -239 -598c-35 84 -179 602 -233 721c-24 6 -45 9 -75 14z" />
    <glyph glyph-name="X" unicode="X" horiz-adv-x="709" 
d="M720 -36l-42 -10c-139 105 -300 322 -344 372c-27 -30 -146 -216 -184 -295c22 -5 65 -12 83 -14l3 -21c-16 0 -92 4 -149 4c-56 0 -84 -2 -109 -4l7 21c20 3 44 6 63 14c41 25 229 285 262 327c-71 90 -191 263 -237 311c-18 6 -44 10 -65 14l-3 21c12 -2 63 -4 153 -4
c53 0 118 2 159 4l-6 -21c-38 -4 -65 -9 -85 -14c13 -26 132 -202 156 -229c29 38 128 178 153 229c-17 6 -58 12 -71 14l-4 21c23 -2 76 -4 130 -4c42 0 79 2 104 4l-2 -21c-19 -5 -46 -10 -62 -14c-18 -6 -195 -221 -226 -260c58 -79 244 -351 316 -445z" />
    <glyph glyph-name="Y" unicode="Y" horiz-adv-x="654" 
d="M286 220v32c0 14 0 40 -3 66c-8 26 -198 308 -244 351c-13 6 -50 10 -70 14l-4 21c17 -2 83 -4 174 -4c57 0 124 2 138 4l-5 -21c-18 -4 -63 -9 -86 -14c59 -104 161 -250 192 -303c16 29 170 262 173 303c-21 5 -65 12 -78 14l-3 21c15 -2 71 -4 126 -4c46 0 98 2 121 4
l-3 -21c-15 -3 -47 -8 -68 -14c-22 -7 -228 -299 -242 -343c-3 -17 -4 -47 -4 -71v-38c0 -27 1 -161 5 -186c12 -3 78 -11 97 -14l2 -21c-21 2 -111 4 -179 4c-36 0 -109 -2 -137 -4l5 21c19 2 65 8 88 14c4 15 5 125 5 189z" />
    <glyph glyph-name="Z" unicode="Z" horiz-adv-x="718" 
d="M652 221l23 6c-5 -29 -51 -291 -55 -342l-23 7c1 19 5 77 5 96c-12 7 -210 12 -302 12c-43 0 -184 -3 -273 -6c50 53 451 607 483 665c-68 2 -344 -15 -374 -43c-10 -26 -30 -99 -36 -116l-23 -3c22 96 29 256 32 299l23 -5c1 -27 2 -78 3 -93c21 -4 228 -9 253 -9
c21 0 224 2 286 5c-55 -69 -425 -577 -478 -658c124 -5 362 12 414 55c13 17 35 105 42 130z" />
    <glyph glyph-name="bracketleft" unicode="[" horiz-adv-x="350" 
d="M184 440v-80c0 -148 -2 -408 7 -445l119 -15l-7 -26l-208 7c5 46 4 335 4 477v76c0 42 -2 325 -4 339l215 7l-5 -26l-114 -11c-6 -26 -7 -263 -7 -303z" />
    <glyph glyph-name="backslash" unicode="\" horiz-adv-x="490" 
d="M405 0c-34 72 -141 276 -194 368c-48 84 -176 298 -207 333l78 -1c2 -18 126 -226 160 -286c42 -74 212 -377 245 -420z" />
    <glyph glyph-name="bracketright" unicode="]" horiz-adv-x="350" 
d="M166 360v80c0 40 -1 277 -7 303l-114 11l-5 26l215 -7c-2 -14 -4 -297 -4 -339v-76c0 -142 -1 -431 4 -477l-208 -7l-7 26l119 15c9 37 7 297 7 445z" />
    <glyph glyph-name="asciicircum" unicode="^" 
d="M537 309l-70 -25c-55 110 -119 245 -165 339c-43 -88 -110 -211 -177 -332l-52 12c81 138 168 290 233 409c48 -82 163 -291 231 -403z" />
    <glyph glyph-name="underscore" unicode="_" horiz-adv-x="500" 
d="M500 -125h-500v50h500v-50z" />
    <glyph glyph-name="quoteleft" unicode="&#x2018;" horiz-adv-x="230" 
d="M61 752l27 -4c15 -73 45 -168 82 -228l-96 -23c-4 78 -6 165 -13 255z" />
    <glyph glyph-name="a" unicode="a" horiz-adv-x="712" 
d="M422 -4l5 21c35 3 70 7 101 14c-18 52 -89 264 -105 293c-35 0 -194 -7 -231 -13c-6 -14 -60 -203 -70 -280c25 -7 58 -11 86 -14l4 -21c-31 2 -122 4 -151 4c-26 0 -93 -2 -116 -4l3 21c29 3 59 8 86 14c36 63 235 601 249 639c-22 6 -55 10 -79 13l-1 21
c30 -2 113 -4 130 -4c42 0 142 2 171 4l-3 -21c-26 -3 -53 -7 -76 -13c12 -44 67 -201 105 -306c28 -77 90 -245 136 -333c29 -6 58 -10 88 -14l3 -21c-12 2 -113 4 -166 4c-29 0 -142 -2 -169 -4zM416 354c-22 66 -85 244 -102 299h-2c-31 -89 -96 -262 -106 -295z" />
    <glyph glyph-name="b" unicode="b" horiz-adv-x="683" 
d="M163 337v63c0 72 -3 228 -7 269c-34 6 -74 8 -103 10l-5 21c33 1 224 8 287 8c195 0 225 -83 225 -130c0 -29 -1 -54 -26 -94c-37 -58 -96 -90 -129 -104v-3c99 -16 205 -87 205 -193c0 -115 -94 -192 -233 -192c-14 0 -48 2 -84 4c-35 2 -72 4 -93 4
c-22 0 -123 -2 -152 -4l4 21c23 2 83 8 104 14c7 69 7 218 7 306zM271 347v-54c0 -86 7 -235 12 -248c23 -16 60 -21 80 -21c95 0 135 53 135 122c0 64 -41 141 -109 177c-40 21 -94 27 -118 24zM271 433v-56c31 0 82 6 120 34c37 27 58 75 58 126c0 86 -53 144 -135 144
c-16 0 -31 -2 -40 -6c-2 -10 -3 -152 -3 -242z" />
    <glyph glyph-name="c" unicode="c" horiz-adv-x="809" 
d="M742 475l-23 7c0 19 -3 66 -6 83c-19 44 -112 116 -241 116c-182 0 -297 -132 -297 -288c0 -195 161 -360 372 -360c76 0 166 12 237 54l-14 -43c-23 -19 -124 -60 -281 -60c-37 0 -146 4 -227 44c-130 64 -207 178 -207 306c0 138 70 240 158 299c104 70 197 83 298 83
c88 0 181 -18 209 -26c6 13 18 77 21 89l23 5c-15 -110 -21 -214 -22 -309z" />
    <glyph glyph-name="d" unicode="d" horiz-adv-x="940" 
d="M163 342v79c0 45 -2 228 -7 248c-26 5 -82 12 -106 14l-2 21c15 -2 123 -4 165 -4c35 0 154 4 231 4c117 0 216 -14 282 -46c117 -56 164 -151 164 -242c0 -211 -166 -418 -550 -418c-56 0 -268 -1 -292 -2l4 21c19 1 80 7 104 14c5 17 7 195 7 311zM277 372v-39
c0 -54 3 -242 7 -278c44 -17 83 -18 109 -18c191 0 374 112 374 325c0 85 -26 169 -109 231c-73 54 -193 74 -286 74c-23 0 -67 -2 -88 -6c-3 -15 -7 -245 -7 -289z" />
    <glyph glyph-name="e" unicode="e" horiz-adv-x="637" 
d="M163 343v46c0 90 -3 249 -7 280c-19 4 -80 11 -104 14l-4 21c24 -1 57 -2 90 -3c33 0 66 -1 88 -1c32 0 267 0 294 7c3 12 6 29 8 47l23 4c-5 -21 -18 -176 -20 -207l-22 7c0 7 1 52 0 72c-18 29 -172 42 -225 42c-3 -14 -7 -207 -7 -266v-20c86 0 183 7 207 16
c5 15 8 29 10 43l21 2c-3 -18 -21 -155 -26 -187l-19 8c1 21 2 47 2 67c-31 16 -109 22 -195 22v-20c0 -61 4 -279 7 -308c100 0 194 8 240 34c11 35 16 66 22 88l23 6c-7 -29 -29 -181 -33 -231l-21 4c0 27 0 45 -1 61c-29 5 -251 9 -314 9c-34 0 -113 -2 -152 -4l5 21
c16 1 76 7 103 14c4 18 7 202 7 312z" />
    <glyph glyph-name="f" unicode="f" horiz-adv-x="636" 
d="M163 328v62c0 90 -2 251 -5 279c-13 6 -76 11 -106 14l-4 21c35 -2 136 -4 175 -4c43 0 296 0 317 6c3 12 10 49 13 71l23 5c-8 -46 -16 -172 -17 -246l-23 8c0 16 -2 60 -5 79c-36 34 -196 47 -246 47c-5 -14 -8 -193 -8 -268v-22c49 0 179 4 211 14c5 15 10 40 14 59
l21 3c-6 -48 -14 -148 -16 -223l-21 6c0 21 -2 55 -5 85c-24 18 -147 25 -204 25v-30c0 -83 3 -260 8 -288c38 -8 87 -12 110 -14l4 -21c-35 2 -117 4 -184 4c-57 0 -132 -2 -167 -4l4 21c12 2 78 6 106 14c3 23 5 186 5 297z" />
    <glyph glyph-name="g" unicode="g" horiz-adv-x="905" 
d="M774 167v-32c0 -37 0 -90 2 -118c-58 -17 -188 -33 -256 -33c-65 0 -181 6 -265 48c-126 63 -199 176 -199 301c0 141 70 242 158 302c91 62 192 81 294 81c86 0 191 -13 224 -25c4 16 15 72 18 93l23 5c-6 -39 -17 -216 -14 -309l-23 12c-2 34 -7 69 -11 92
c-26 31 -97 97 -260 97c-174 0 -290 -129 -290 -289c0 -163 139 -372 355 -372c26 0 85 4 127 26c2 15 3 49 3 99v53c0 31 -1 62 -4 80c-20 2 -82 7 -101 11l-6 21c52 -2 129 -3 164 -3c48 0 145 1 157 3l-5 -21c-9 -1 -65 -6 -87 -11c-3 -17 -4 -83 -4 -111z" />
    <glyph glyph-name="h" unicode="h" horiz-adv-x="969" 
d="M163 322v94c0 32 -1 220 -5 253c-18 4 -80 12 -105 14l-5 21c17 -2 112 -4 176 -4c62 0 147 2 163 4l-5 -21c-28 -2 -81 -10 -97 -14c-4 -27 -8 -145 -8 -231v-49c25 0 375 -4 415 3v46c0 78 0 206 -6 231c-17 4 -70 12 -99 14l-5 21c17 -2 110 -4 172 -4
c65 0 149 2 167 4l-6 -21c-20 -2 -73 -10 -102 -14c-5 -20 -7 -226 -7 -253v-70c0 -116 2 -281 9 -315c20 -4 81 -13 101 -14l5 -21c-19 2 -121 4 -168 4c-43 0 -137 -2 -171 -4l5 21c15 1 81 10 99 14c6 34 6 161 6 267v58c-47 -1 -401 -20 -415 -23v-35
c0 -102 4 -230 8 -267c27 -6 77 -13 97 -14l5 -21c-21 2 -120 4 -163 4c-52 0 -146 -2 -176 -4l6 21c23 1 85 10 104 14c4 47 5 215 5 291z" />
    <glyph glyph-name="i" unicode="i" horiz-adv-x="440" 
d="M277 410v-62c0 -130 1 -297 5 -317c25 -6 85 -12 105 -14l5 -21c-22 2 -126 4 -188 4c-34 0 -126 -2 -156 -4l4 21c17 1 85 10 106 14c4 42 5 227 5 325v59c0 33 -1 220 -5 254c-20 4 -86 12 -105 14l-5 21c19 -2 111 -4 190 -4c51 0 137 2 154 4l-5 -21
c-20 -2 -69 -10 -105 -14c-4 -20 -5 -136 -5 -259z" />
    <glyph glyph-name="j" unicode="j" horiz-adv-x="419" 
d="M277 411v-53v-231c0 -83 -4 -128 -47 -202c-25 -43 -64 -88 -172 -170l-21 7c78 83 95 138 106 179c15 52 24 176 24 400v69c0 38 -1 207 -9 259c-24 4 -103 12 -132 14l-4 21c24 -2 142 -4 197 -4c54 0 139 2 173 4l-3 -21c-17 -2 -72 -10 -107 -14
c-4 -31 -5 -236 -5 -258z" />
    <glyph glyph-name="k" unicode="k" horiz-adv-x="800" 
d="M163 352v57c0 94 -2 233 -5 260c-24 4 -83 12 -107 14l-3 21c20 -2 135 -4 176 -4c37 0 145 2 164 4l-4 -21c-12 -2 -79 -10 -102 -14c-4 -32 -5 -187 -5 -269v-31c65 57 292 251 321 300c-23 6 -52 11 -74 14l-4 21c42 -2 113 -4 152 -4c29 0 75 2 109 4l-6 -21
c-15 -2 -40 -5 -66 -12c-43 -23 -229 -179 -271 -217c39 -62 327 -424 379 -472l-34 -11c-78 30 -415 375 -443 405c-19 -14 -50 -40 -63 -52v-24c0 -87 1 -227 5 -264c26 -11 99 -17 114 -19l2 -21c-19 2 -125 4 -179 4c-47 0 -142 -2 -171 -4l4 21c24 2 82 8 106 14
c3 44 5 178 5 321z" />
    <glyph glyph-name="l" unicode="l" horiz-adv-x="589" 
d="M163 367v58c0 57 -1 212 -5 244c-22 4 -81 12 -107 14l-3 21c25 -2 112 -4 173 -4c67 0 164 2 184 4l-5 -21c-24 -2 -78 -10 -118 -14c-4 -32 -5 -176 -5 -256v-36c0 -131 1 -323 5 -345c119 0 201 26 239 51c15 34 28 86 36 114l24 4c-20 -89 -39 -195 -53 -329l-23 5
c0 14 5 90 5 117c-22 2 -238 6 -292 6c-50 0 -142 -2 -170 -4l4 21c15 1 85 7 106 14c4 44 5 237 5 336z" />
    <glyph glyph-name="m" unicode="m" horiz-adv-x="1060" 
d="M726 -4l2 21c14 1 90 10 110 12c-2 37 -89 487 -101 561h-4c-27 -61 -224 -541 -254 -598c-28 62 -216 561 -228 599h-4c-26 -153 -85 -431 -81 -560c18 -4 74 -12 89 -14l4 -21c-14 2 -130 4 -149 4c-27 0 -78 -2 -111 -4l7 21c17 3 49 7 71 13c22 63 131 557 146 639
c-27 4 -88 12 -99 14l-6 21c13 -2 91 -4 144 -4c43 0 122 2 150 4l-4 -21c-28 -3 -56 -10 -75 -14c29 -91 151 -418 182 -494c29 57 202 471 204 494c-19 7 -50 11 -68 14l-5 21c32 -2 100 -4 135 -4c32 0 116 2 139 4l-3 -21c-14 -2 -63 -9 -84 -14
c19 -112 114 -575 131 -638c25 -6 65 -11 83 -14l5 -21c-34 2 -94 4 -141 4c-46 0 -156 -2 -185 -4z" />
    <glyph glyph-name="n" unicode="n" horiz-adv-x="908" 
d="M44 679l-4 21c56 2 150 3 228 7c22 -34 223 -286 240 -304c26 -28 185 -221 217 -248c0 111 -1 462 -21 514c-20 4 -73 12 -101 14l-5 21c19 -2 127 -4 149 -4s105 2 126 4l-4 -21c-13 -2 -49 -10 -76 -14c-12 -39 -17 -180 -19 -212c-3 -47 -11 -467 -17 -507
c-30 28 -307 351 -330 377c-14 15 -204 247 -237 285c-3 -20 9 -545 22 -581c15 -5 90 -12 109 -14l3 -21c-18 2 -122 4 -148 4c-29 0 -107 -2 -136 -4l3 21c28 4 60 7 83 14c17 42 28 603 28 636c-23 5 -72 10 -110 12z" />
    <glyph glyph-name="o" unicode="o" horiz-adv-x="947" 
d="M460 -16c-101 0 -216 17 -309 112c-73 75 -96 148 -96 242c0 198 163 378 439 378c106 0 190 -17 277 -81c79 -58 121 -155 121 -248c0 -245 -186 -403 -432 -403zM509 25c143 0 261 129 261 289c0 212 -147 364 -313 364c-137 0 -287 -92 -287 -298
c0 -179 144 -355 339 -355z" />
    <glyph glyph-name="p" unicode="p" horiz-adv-x="639" 
d="M275 418v-42c0 -85 1 -316 5 -345c24 -4 96 -11 127 -14l5 -21c-33 2 -145 4 -191 4c-50 0 -145 -2 -173 -4l4 21c15 2 80 9 106 14c4 44 5 257 5 350v40c0 32 -1 214 -5 248c-19 7 -83 12 -107 14l-3 21c30 0 176 1 222 1c109 0 192 -9 241 -29c89 -37 98 -98 98 -123
c0 -68 -29 -119 -69 -159c-66 -66 -174 -93 -210 -98l3 25c36 9 157 45 157 196c0 61 -30 111 -81 136c-33 16 -85 22 -129 22c-4 -29 -5 -171 -5 -257z" />
    <glyph glyph-name="q" unicode="q" horiz-adv-x="946" 
d="M961 -226l-23 -10c-62 11 -327 180 -381 228c-9 -1 -25 -3 -44 -5c-18 -1 -39 -3 -58 -3c-91 0 -216 18 -305 107c-93 93 -95 209 -95 249c0 186 150 376 435 376c123 0 231 -30 310 -108c84 -82 91 -183 91 -223c0 -162 -86 -280 -206 -348c55 -83 236 -237 276 -263z
M496 22c179 0 277 145 277 311c0 191 -155 346 -324 346c-147 0 -282 -106 -282 -302c0 -171 154 -355 329 -355z" />
    <glyph glyph-name="r" unicode="r" horiz-adv-x="748" 
d="M162 361v61c0 36 -1 228 -5 247c-17 4 -85 10 -107 12l-3 21l216 1c95 0 214 -1 282 -28c53 -21 86 -59 86 -114c0 -63 -64 -146 -141 -189c11 -25 172 -287 276 -397l-44 -7c-70 32 -336 339 -352 360c-38 -3 -79 -6 -96 -6v-26c0 -65 2 -219 5 -265
c17 -5 83 -12 105 -14l4 -21c-25 2 -126 4 -172 4c-41 0 -146 -2 -169 -4l4 21c14 1 78 7 106 14c4 29 5 225 5 330zM274 384v-31c36 0 79 3 122 19s114 62 114 161c0 64 -58 142 -231 142c-3 -41 -5 -220 -5 -291z" />
    <glyph glyph-name="s" unicode="s" horiz-adv-x="552" 
d="M86 -95l-23 -6c2 14 16 125 16 164c0 26 6 134 3 158l23 -6c-1 -13 4 -70 7 -88c27 -64 86 -109 155 -109c79 0 142 52 142 126c0 81 -63 121 -128 163c-98 64 -176 120 -176 233c0 78 58 176 206 176c59 0 111 -12 135 -18c7 24 12 54 18 81l23 3
c-14 -99 -24 -192 -24 -274l-23 10c0 34 -2 58 -4 76c-11 36 -63 90 -133 90c-86 0 -122 -55 -122 -100c0 -65 68 -100 144 -148c83 -52 167 -108 167 -234c0 -139 -110 -218 -246 -218c-48 0 -110 10 -138 25c-5 -19 -15 -67 -22 -104z" />
    <glyph glyph-name="t" unicode="t" horiz-adv-x="746" 
d="M316 368v45c0 74 -2 222 -5 245c-160 0 -232 -25 -259 -42c-8 -22 -14 -61 -20 -94l-23 -6c4 48 16 173 15 252l23 -4c1 -13 3 -44 6 -65c16 -3 188 -10 323 -10c145 0 318 7 334 10c4 12 10 43 14 62l25 4c-6 -23 -29 -228 -32 -258l-23 6c2 40 3 81 2 103
c-25 20 -164 42 -261 42c-3 -27 -5 -173 -5 -245v-45c0 -88 2 -257 5 -337c19 -3 110 -12 129 -14l4 -21c-24 2 -141 4 -196 4c-45 0 -165 -2 -194 -4l5 21c23 2 104 11 128 14c3 78 5 250 5 337z" />
    <glyph glyph-name="u" unicode="u" horiz-adv-x="857" 
d="M131 287v156c0 90 -2 198 -5 226c-21 5 -52 10 -79 14l-3 21c28 -2 92 -4 169 -4c46 0 123 2 148 4l-5 -21c-27 -3 -72 -8 -104 -14c-3 -17 -5 -144 -5 -230v-133c0 -212 90 -284 198 -284c66 0 110 16 144 48c54 51 67 139 67 259v92c0 32 -1 215 -5 248
c-23 4 -83 12 -109 14l-7 21c25 -2 100 -4 162 -4c52 0 105 2 122 4l-6 -21c-17 -4 -44 -8 -70 -14c-3 -15 -5 -140 -5 -167v-48c0 -39 2 -87 2 -123c0 -113 -21 -209 -98 -277c-46 -41 -110 -70 -209 -70c-207 0 -302 128 -302 303z" />
    <glyph glyph-name="v" unicode="v" horiz-adv-x="747" 
d="M-27 683l-4 21c32 -2 88 -4 144 -4c62 0 151 2 173 4l-5 -21c-21 -2 -77 -8 -94 -14c7 -34 203 -495 229 -527c23 46 204 421 224 527c-19 4 -60 9 -92 14l-5 21c14 -2 85 -4 146 -4c47 0 88 2 112 4l-5 -21c-19 -4 -35 -8 -61 -14c-21 -12 -347 -681 -360 -713
c-32 56 -291 645 -340 713c-13 4 -30 9 -62 14z" />
    <glyph glyph-name="w" unicode="w" horiz-adv-x="1054" 
d="M-23 683l-4 21c28 -2 70 -4 147 -4c85 0 138 2 161 4l-5 -21c-14 -3 -67 -10 -91 -14c10 -44 121 -465 139 -511h2c12 34 157 392 179 485c-29 6 -81 13 -98 16l-5 21c38 -2 84 -4 142 -4c62 0 119 2 143 4l-3 -21c-30 -5 -61 -8 -80 -16c22 -57 149 -407 182 -491h2
c13 45 132 420 138 517c-29 6 -61 9 -94 14l-5 21c21 -2 71 -4 131 -4c58 0 99 2 130 4l-3 -21c-22 -3 -47 -8 -64 -14c-29 -31 -248 -687 -258 -721c-27 58 -210 515 -239 598c-34 -86 -185 -474 -239 -598c-35 84 -179 602 -233 721c-24 6 -45 9 -75 14z" />
    <glyph glyph-name="x" unicode="x" horiz-adv-x="709" 
d="M720 -36l-42 -10c-139 105 -300 322 -344 372c-27 -30 -146 -216 -184 -295c22 -5 65 -12 83 -14l3 -21c-16 0 -92 4 -149 4c-56 0 -84 -2 -109 -4l7 21c20 3 44 6 63 14c41 25 229 285 262 327c-71 90 -191 263 -237 311c-18 6 -44 10 -65 14l-3 21c12 -2 63 -4 153 -4
c53 0 118 2 159 4l-6 -21c-38 -4 -65 -9 -85 -14c13 -26 132 -202 156 -229c29 38 128 178 153 229c-17 6 -58 12 -71 14l-4 21c23 -2 76 -4 130 -4c42 0 79 2 104 4l-2 -21c-19 -5 -46 -10 -62 -14c-18 -6 -195 -221 -226 -260c58 -79 244 -351 316 -445z" />
    <glyph glyph-name="y" unicode="y" horiz-adv-x="654" 
d="M286 220v32c0 14 0 40 -3 66c-8 26 -198 308 -244 351c-13 6 -50 10 -70 14l-4 21c17 -2 83 -4 174 -4c57 0 124 2 138 4l-5 -21c-18 -4 -63 -9 -86 -14c59 -104 161 -250 192 -303c16 29 170 262 173 303c-21 5 -65 12 -78 14l-3 21c15 -2 71 -4 126 -4c46 0 98 2 121 4
l-3 -21c-15 -3 -47 -8 -68 -14c-22 -7 -228 -299 -242 -343c-3 -17 -4 -47 -4 -71v-38c0 -27 1 -161 5 -186c12 -3 78 -11 97 -14l2 -21c-21 2 -111 4 -179 4c-36 0 -109 -2 -137 -4l5 21c19 2 65 8 88 14c4 15 5 125 5 189z" />
    <glyph glyph-name="z" unicode="z" horiz-adv-x="718" 
d="M652 221l23 6c-5 -29 -51 -291 -55 -342l-23 7c1 19 5 77 5 96c-12 7 -210 12 -302 12c-43 0 -184 -3 -273 -6c50 53 451 607 483 665c-68 2 -344 -15 -374 -43c-10 -26 -30 -99 -36 -116l-23 -3c22 96 29 256 32 299l23 -5c1 -27 2 -78 3 -93c21 -4 228 -9 253 -9
c21 0 224 2 286 5c-55 -69 -425 -577 -478 -658c124 -5 362 12 414 55c13 17 35 105 42 130z" />
    <glyph glyph-name="braceleft" unicode="{" horiz-adv-x="350" 
d="M310 -103l-13 -25c-91 8 -209 54 -209 172c0 32 27 189 27 223c0 50 -20 77 -85 87l8 23c53 0 71 25 71 74c0 20 -12 130 -12 163c0 87 63 153 211 166l-5 -28c-53 -2 -115 -27 -113 -119l3 -141c2 -81 -60 -111 -85 -129c70 -31 95 -90 90 -147l-15 -173
c-11 -122 74 -136 127 -146z" />
    <glyph glyph-name="bar" unicode="|" horiz-adv-x="281" 
d="M174 -260h-66v1043h66v-1043z" />
    <glyph glyph-name="braceright" unicode="}" horiz-adv-x="350" 
d="M53 -128l-13 25c53 10 138 24 127 146l-15 173c-5 57 20 116 90 147c-25 18 -87 48 -85 129l3 141c2 92 -60 117 -113 119l-5 28c148 -13 211 -79 211 -166c0 -33 -12 -143 -12 -163c0 -49 18 -74 71 -74l8 -23c-65 -10 -85 -37 -85 -87c0 -34 27 -191 27 -223
c0 -118 -118 -164 -209 -172z" />
    <glyph glyph-name="asciitilde" unicode="~" 
d="M527 366c-26 -32 -69 -91 -114 -90c-27 0 -94 25 -119 34c-18 7 -88 35 -106 35c-24 0 -70 -39 -86 -54l-22 18c24 31 71 90 114 90c26 0 97 -29 121 -38c25 -10 79 -32 106 -31c29 1 65 36 85 54z" />
    <glyph glyph-name="exclamdown" unicode="&#xa1;" horiz-adv-x="360" 
d="M182 499l40 12c-1 -53 12 -438 24 -510c-55 -5 -88 -9 -138 -17c15 68 68 433 74 515zM139 702l110 14l3 -107l-107 -13z" />
    <glyph glyph-name="cent" unicode="&#xa2;" horiz-adv-x="566" 
d="M355 534l-27 -369c50 -13 137 2 178 31l-7 -39c-18 -13 -77 -38 -175 -35c-5 -52 -6 -103 -6 -156l-53 -10c7 21 14 86 21 169c-145 18 -215 105 -215 209c0 85 42 150 96 186c53 36 100 45 150 48c5 64 5 117 3 139l54 16c-7 -51 -13 -102 -16 -153c56 0 91 -10 105 -12
c2 9 9 45 11 56l23 3c-7 -35 -15 -145 -13 -208l-23 2c0 19 -4 50 -6 60c-11 24 -47 60 -100 63zM289 172l27 361c-89 -7 -139 -72 -139 -158c0 -103 51 -177 112 -203z" />
    <glyph glyph-name="sterling" unicode="&#xa3;" horiz-adv-x="535" 
d="M497 171l23 7c-5 -27 -25 -194 -28 -282l-23 6c-1 20 -2 50 -5 80c-21 12 -240 18 -272 18s-119 -2 -145 -4l12 22c37 3 88 39 88 119c0 70 -9 156 -15 196c-26 0 -69 -4 -100 -13l11 41l87 1c-4 43 -10 88 -10 147c0 80 32 207 216 207c69 0 105 -21 117 -23
c4 15 16 72 20 96l23 1c-15 -78 -23 -186 -22 -266l-23 6c0 22 -4 61 -6 75c-10 21 -50 79 -122 79c-119 0 -104 -130 -104 -144c0 -35 5 -109 12 -176c15 0 135 9 155 16l-14 -47h-138c1 -16 9 -71 9 -112c0 -72 -44 -128 -82 -169h110c96 0 187 12 201 16
c5 16 18 73 25 103z" />
    <glyph glyph-name="fraction" unicode="&#x2044;" horiz-adv-x="324" 
d="M394 740l-425 -822l-39 24l423 821z" />
    <glyph glyph-name="yen" unicode="&#xa5;" horiz-adv-x="560" 
d="M481 224l-11 -37h-133v-22c0 -28 0 -109 5 -133c22 -4 71 -13 90 -15l2 -21c-23 2 -112 4 -143 4c-36 0 -106 -2 -136 -4l6 21c21 2 59 9 82 15c4 13 5 72 5 135v20c-34 0 -101 -4 -156 -7l11 37h145v55c-34 0 -97 -5 -151 -8l11 38h140v17c-16 27 -166 308 -205 355
c-20 4 -35 6 -58 8l-3 22c24 -2 68 -4 119 -4c68 0 125 2 142 4l-6 -22c-19 -1 -64 -7 -77 -8c32 -66 121 -247 158 -306c20 35 141 269 143 306c-22 2 -63 7 -82 8l-5 22c12 -2 72 -4 125 -4c36 0 79 2 99 4l-2 -22c-13 -1 -35 -4 -57 -8c-22 -13 -174 -282 -202 -346v-26
c34 0 120 8 158 8l-12 -38h-146v-55c36 0 104 7 144 7z" />
    <glyph glyph-name="florin" unicode="&#x192;" horiz-adv-x="444" 
d="M145 -160l-53 -24c8 88 15 423 19 487c-30 0 -74 -4 -98 -8l8 38h92c11 175 27 383 235 383c40 0 74 -7 88 -11c4 13 16 64 20 85l23 4c-16 -72 -23 -180 -22 -266l-23 6c0 33 -4 69 -6 89c-14 41 -53 62 -86 62c-39 0 -73 -25 -90 -75c-27 -78 -32 -192 -41 -277
c17 0 135 8 163 13l-12 -43h-154c-14 -81 -46 -371 -63 -463z" />
    <glyph glyph-name="section" unicode="&#xa7;" horiz-adv-x="490" 
d="M198 602c0 -30 17 -48 40 -66c41 -33 83 -61 128 -96c58 -45 91 -103 91 -178c0 -139 -110 -326 -264 -326c-28 0 -71 9 -87 17c-3 -15 -4 -27 -9 -53l-30 -5c5 44 12 185 10 217l30 -3c0 -11 4 -48 5 -75c27 -34 73 -48 107 -48c42 0 84 26 84 67c0 37 -13 53 -67 96
c-32 25 -68 57 -99 81c-52 40 -94 100 -94 188c0 87 43 164 88 211c53 55 103 88 183 88c26 0 43 -9 69 -20c3 10 12 27 14 37l29 3c-5 -30 -21 -103 -21 -197l-27 2l-3 68c-20 38 -55 66 -97 66c-33 0 -80 -27 -80 -74zM97 463c0 -71 26 -115 90 -166
c49 -39 106 -87 130 -109c22 -20 44 -48 44 -95l3 -1c19 27 38 66 38 111c0 73 -19 117 -90 172c-34 26 -95 69 -121 91c-30 27 -55 63 -51 111l-4 1c-27 -31 -39 -72 -39 -115z" />
    <glyph glyph-name="currency" unicode="&#xa4;" horiz-adv-x="478" 
d="M440 172l-40 -39l-58 69c-31 -25 -72 -36 -103 -36c-32 0 -73 11 -103 36l-58 -69l-40 39l64 57c-20 24 -42 67 -42 118c0 42 19 90 45 117l-64 55l40 39l57 -68c27 24 69 38 101 38c36 0 74 -11 104 -38l55 68l40 -39l-61 -55c27 -27 43 -75 43 -117
c0 -41 -20 -90 -45 -117zM239 485c-70 0 -114 -72 -114 -138c0 -76 50 -140 114 -140s115 64 115 140c0 74 -51 138 -115 138z" />
    <glyph glyph-name="quotesingle" unicode="'" horiz-adv-x="148" 
d="M89 474l-30 -6c-9 96 -20 181 -34 259l98 -11c-11 -74 -24 -162 -34 -242z" />
    <glyph glyph-name="quotedblleft" unicode="&#x201c;" horiz-adv-x="350" 
d="M61 752l27 -1c12 -76 43 -165 75 -231l-89 -23c-4 78 -6 165 -13 255zM188 752l27 -1c12 -76 43 -165 75 -231l-89 -23c-4 78 -6 165 -13 255z" />
    <glyph glyph-name="guillemotleft" unicode="&#xab;" horiz-adv-x="540" 
d="M281 278l-15 -72c-15 16 -173 147 -187 158c34 28 171 137 188 155l10 -36c-29 -26 -85 -82 -115 -112c35 -33 101 -82 119 -93zM461 278l-15 -72c-15 16 -173 147 -187 158c34 28 171 137 188 155l10 -36c-29 -26 -85 -82 -115 -112c35 -33 101 -82 119 -93z" />
    <glyph glyph-name="guilsinglleft" unicode="&#x2039;" horiz-adv-x="360" 
d="M281 278l-15 -72c-15 16 -173 147 -187 158c34 28 171 137 188 155l10 -36c-29 -26 -85 -82 -115 -112c35 -33 101 -82 119 -93z" />
    <glyph glyph-name="guilsinglright" unicode="&#x203a;" horiz-adv-x="360" 
d="M79 447l15 72c15 -16 173 -147 187 -158c-34 -28 -171 -137 -188 -155l-10 36c29 26 86 82 116 112c-35 32 -102 82 -120 93z" />
    <glyph glyph-name="fi" unicode="&#xfb01;" horiz-adv-x="1076" 
d="M163 328v62c0 90 -2 251 -5 279c-13 6 -76 11 -106 14l-4 21c18 -1 52 -2 86 -3c35 0 70 -1 89 -1c43 0 296 0 317 6c3 12 10 49 13 71l23 5c-8 -46 -16 -172 -17 -246l-23 8c0 16 -2 60 -5 79c-36 34 -196 47 -246 47c-5 -14 -8 -193 -8 -268v-22c49 0 179 4 211 14
c5 15 10 40 14 59l21 3c-6 -48 -14 -148 -16 -223l-21 6c0 21 -2 55 -5 85c-24 18 -147 25 -204 25v-30c0 -83 3 -260 8 -288c38 -8 87 -12 110 -14l4 -21c-35 2 -117 4 -184 4c-57 0 -132 -2 -167 -4l4 21c12 2 78 6 106 14c3 23 5 186 5 297zM913 410v-62
c0 -130 1 -297 5 -317c25 -6 85 -12 105 -14l5 -21c-22 2 -126 4 -188 4c-34 0 -126 -2 -156 -4l4 21c17 1 85 10 106 14c4 42 5 227 5 325v59c0 33 -1 220 -5 254c-20 4 -86 12 -105 14l-5 21c19 -2 111 -4 190 -4c51 0 137 2 154 4l-5 -21c-20 -2 -69 -10 -105 -14
c-4 -20 -5 -136 -5 -259z" />
    <glyph glyph-name="fl" unicode="&#xfb02;" horiz-adv-x="1225" 
d="M163 328v62c0 90 -2 251 -5 279c-13 6 -76 11 -106 14l-4 21c18 -1 52 -2 86 -3c35 0 70 -1 89 -1c43 0 296 0 317 6c3 12 10 49 13 71l23 5c-8 -46 -16 -172 -17 -246l-23 8c0 16 -2 60 -5 79c-36 34 -196 47 -246 47c-5 -14 -8 -193 -8 -268v-22c49 0 179 4 211 14
c5 15 10 40 14 59l21 3c-6 -48 -14 -148 -16 -223l-21 6c0 21 -2 55 -5 85c-24 18 -147 25 -204 25v-30c0 -83 3 -260 8 -288c38 -8 87 -12 110 -14l4 -21c-35 2 -117 4 -184 4c-57 0 -132 -2 -167 -4l4 21c12 2 78 6 106 14c3 23 5 186 5 297zM799 367v58
c0 57 -1 212 -5 244c-22 4 -81 12 -107 14l-3 21c25 -2 112 -4 173 -4c67 0 164 2 184 4l-5 -21c-24 -2 -78 -10 -118 -14c-4 -32 -5 -176 -5 -256v-36c0 -131 1 -323 5 -345c119 0 201 26 239 51c15 34 28 86 36 114l24 4c-20 -89 -39 -195 -53 -329l-23 5c0 14 5 90 5 117
c-22 2 -238 6 -292 6c-50 0 -142 -2 -170 -4l4 21c15 1 85 7 106 14c4 44 5 237 5 336z" />
    <glyph glyph-name="endash" unicode="&#x2013;" horiz-adv-x="500" 
d="M8 400h492l-8 -64c-12 1 -88 4 -183 4c-102 0 -223 -4 -309 -14z" />
    <glyph glyph-name="dagger" unicode="&#x2020;" horiz-adv-x="475" 
d="M212 -89c1 38 1 106 0 147c-5 151 -7 239 -10 412c-52 0 -119 -8 -175 -15l8 66l166 -5c-1 58 -4 98 -13 184l88 7c-6 -86 -11 -131 -11 -191l183 7l-9 -64c-65 7 -102 12 -175 12c-2 -167 -2 -261 -8 -413c-1 -42 -2 -109 0 -147h-44z" />
    <glyph glyph-name="daggerdbl" unicode="&#x2021;" horiz-adv-x="475" 
d="M439 271c-55 6 -112 12 -178 12c-1 -78 -2 -138 -5 -226c-1 -42 -2 -108 0 -146h-45c1 38 1 104 0 146c-3 88 -3 149 -5 225c-65 0 -131 -9 -179 -15l8 66l170 -5c-1 43 -2 90 -3 142c-66 0 -119 -8 -175 -15l8 65l166 -4c-1 58 -4 98 -13 184l88 7
c-6 -86 -11 -131 -11 -191l183 7l-9 -64c-64 7 -110 12 -175 12c-1 -52 -1 -99 -2 -143l186 7z" />
    <glyph glyph-name="periodcentered" unicode="&#xb7;" horiz-adv-x="320" 
d="M221 326l-118 -22l-3 107l116 22z" />
    <glyph glyph-name="paragraph" unicode="&#xb6;" horiz-adv-x="526" 
d="M305 -63c4 114 3 228 3 345v117c0 34 0 223 -3 269c-65 -11 -116 -72 -116 -220c0 -128 49 -165 85 -172l2 -33c-135 17 -263 61 -263 236c0 162 156 222 298 221h104c40 -1 93 -1 117 -1l-4 -20c-23 -2 -61 -6 -77 -10c-3 -13 -6 -153 -6 -284v-111
c0 -100 0 -202 5 -299c19 1 35 2 59 4l5 -19c-51 -12 -111 -26 -153 -39c-58 -18 -112 -34 -162 -56l3 27c32 14 60 26 103 45zM399 671c-2 0 -25 0 -44 -1c-3 -21 -6 -159 -6 -285v-111c0 -99 1 -219 6 -320c15 4 31 7 46 10c4 111 3 201 3 318v117c0 35 -2 236 -5 272z
" />
    <glyph glyph-name="bullet" unicode="&#x2022;" horiz-adv-x="390" 
d="M103 413l149 46l35 -149l-157 -50z" />
    <glyph glyph-name="quotesinglbase" unicode="&#x201a;" horiz-adv-x="230" 
d="M76 -123l-27 2c28 88 39 173 40 255l86 -32c-31 -66 -70 -153 -99 -225z" />
    <glyph glyph-name="quotedblbase" unicode="&#x201e;" horiz-adv-x="350" 
d="M79 -123l-27 2c28 88 39 173 40 255l86 -32c-31 -66 -70 -153 -99 -225zM200 -123l-27 2c28 88 39 173 40 255l86 -32c-31 -66 -70 -153 -99 -225z" />
    <glyph glyph-name="quotedblright" unicode="&#x201d;" horiz-adv-x="350" 
d="M79 495l-27 2c27 88 38 173 40 255l86 -32c-31 -66 -70 -153 -99 -225zM200 495l-27 2c28 88 39 173 40 255l86 -32c-31 -66 -70 -153 -99 -225z" />
    <glyph glyph-name="guillemotright" unicode="&#xbb;" horiz-adv-x="540" 
d="M259 447l15 72c15 -16 173 -146 187 -158c-34 -28 -171 -137 -188 -155l-10 36c29 26 86 82 116 112c-35 31 -102 82 -120 93zM79 447l15 72c15 -16 173 -146 187 -158c-34 -28 -171 -137 -188 -155l-10 36c29 26 86 82 116 112c-35 31 -102 82 -120 93z" />
    <glyph glyph-name="ellipsis" unicode="&#x2026;" horiz-adv-x="1000" 
d="M555 1l-110 -21l-4 100l110 20zM888 1l-110 -21l-4 100l110 20zM222 1l-110 -21l-4 100l110 20z" />
    <glyph glyph-name="perthousand" unicode="&#x2030;" horiz-adv-x="1124" 
d="M292 528c0 32 -11 145 -86 145c-39 0 -80 -32 -80 -121c0 -38 13 -144 88 -144c29 0 78 28 78 120zM200 379c-96 0 -150 52 -150 148c0 94 71 173 168 173c99 0 150 -53 150 -147c0 -97 -78 -174 -168 -174zM225 0l-80 -6c33 44 203 346 245 420c34 60 158 268 160 286
l79 2c-34 -39 -162 -250 -210 -334c-53 -92 -160 -296 -194 -368zM547 0c-95 0 -150 53 -150 148c0 93 71 172 168 172c98 0 150 -51 150 -147c0 -98 -77 -173 -168 -173zM562 29c28 0 77 28 77 121c0 26 -10 143 -86 143c-39 0 -80 -31 -80 -120c0 -33 13 -144 89 -144z
M906 0c-95 0 -150 53 -150 148c0 93 71 172 168 172c98 0 150 -51 150 -147c0 -98 -77 -173 -168 -173zM921 29c28 0 77 28 77 121c0 26 -10 143 -86 143c-39 0 -80 -31 -80 -120c0 -33 13 -144 89 -144z" />
    <glyph glyph-name="questiondown" unicode="&#xbf;" 
d="M331 533l42 10c4 -53 17 -105 24 -158c-45 -20 -68 -29 -116 -65c-75 -57 -80 -116 -80 -161c0 -58 39 -141 132 -141c75 0 121 42 139 72c8 20 15 51 22 94l23 7c-12 -96 -18 -221 -18 -303l-23 8c-1 38 -2 79 -5 109c-35 -14 -96 -21 -144 -21c-178 0 -250 68 -250 143
c0 88 70 148 120 186c38 29 63 38 98 60c11 27 25 100 36 160zM283 702l116 14l1 -96l-111 -16z" />
    <glyph glyph-name="grave" unicode="`" horiz-adv-x="917" 
d="M280 849l39 77c32 -22 188 -124 198 -126l-12 -32c-17 8 -203 83 -225 81z" />
    <glyph glyph-name="acute" unicode="&#xb4;" horiz-adv-x="917" 
d="M599 926l38 -77c-22 2 -208 -73 -224 -81l-12 32c10 2 166 104 198 126z" />
    <glyph glyph-name="circumflex" unicode="&#x2c6;" horiz-adv-x="917" 
d="M345 772l-19 23c23 20 110 102 127 122c39 -35 118 -106 137 -121l-19 -24c-11 6 -99 55 -120 66c-25 -11 -93 -56 -106 -66z" />
    <glyph glyph-name="tilde" unicode="&#x2dc;" horiz-adv-x="917" 
d="M590 872l28 -6c-10 -29 -45 -85 -78 -85c-21 0 -50 11 -76 22c-30 12 -61 23 -78 23c-18 0 -40 -4 -59 -36l-28 6c9 26 47 92 77 92c21 0 43 -11 71 -22s60 -25 89 -25c13 0 35 -2 54 31z" />
    <glyph glyph-name="macron" unicode="&#xaf;" horiz-adv-x="917" 
d="M338 865h252l-6 -39c-17 0 -239 -15 -256 -26z" />
    <glyph glyph-name="breve" unicode="&#x2d8;" horiz-adv-x="917" 
d="M585 904l17 -16c-22 -36 -69 -91 -150 -91c-76 0 -120 53 -137 91l19 16c19 -24 64 -48 126 -48c67 0 110 29 125 48z" />
    <glyph glyph-name="dotaccent" unicode="&#x2d9;" horiz-adv-x="917" 
d="M387 825l58 79l85 -60l-59 -76z" />
    <glyph glyph-name="dieresis" unicode="&#xa8;" horiz-adv-x="917" 
d="M289 819l48 78l77 -52l-50 -77zM503 821l49 76l76 -52l-51 -76z" />
    <glyph glyph-name="ring" unicode="&#x2da;" horiz-adv-x="917" 
d="M444 773c-56 0 -101 23 -101 65c0 50 66 89 121 89c77 0 110 -28 110 -64c0 -37 -47 -90 -130 -90zM399 855c0 -39 35 -62 63 -62s53 21 53 53c0 28 -21 61 -60 61c-25 0 -56 -21 -56 -52z" />
    <glyph glyph-name="cedilla" unicode="&#xb8;" horiz-adv-x="917" 
d="M471 0h52l-64 -76c52 -15 89 -40 89 -81c0 -76 -112 -108 -188 -104l9 32c68 -2 102 27 101 60c1 31 -23 57 -78 72z" />
    <glyph glyph-name="hungarumlaut" unicode="&#x2dd;" horiz-adv-x="917" 
d="M445 921l36 -59c-22 -9 -163 -85 -178 -94l-13 26c9 6 127 98 155 127zM591 921l36 -59c-22 -9 -162 -83 -180 -94l-13 26c10 6 127 99 157 127z" />
    <glyph glyph-name="ogonek" unicode="&#x2db;" horiz-adv-x="917" 
d="M463 0h32c-15 -15 -67 -73 -64 -126c3 -75 96 -80 117 -77l-9 -27c-110 -10 -181 19 -181 73c0 62 80 142 105 157z" />
    <glyph glyph-name="caron" unicode="&#x2c7;" horiz-adv-x="917" 
d="M572 917l18 -24c-21 -22 -107 -101 -126 -121c-39 31 -118 106 -137 121l19 24c8 -6 99 -59 120 -66c25 10 93 56 106 66z" />
    <glyph glyph-name="emdash" unicode="&#x2014;" horiz-adv-x="1000" 
d="M8 400h992l-8 -64c-11 1 -191 4 -397 4c-236 0 -506 -3 -595 -14z" />
    <glyph glyph-name="AE" unicode="&#xc6;" horiz-adv-x="894" 
d="M533 394v-34c62 0 184 7 208 16c4 15 7 29 10 43l21 2c-7 -20 -21 -154 -26 -186l-19 8c1 21 2 47 2 67c-31 16 -134 21 -196 21v-19c0 -36 4 -259 7 -283c76 0 200 8 241 34c11 35 16 66 22 88l23 6c-7 -29 -29 -181 -33 -231l-21 4c0 27 0 45 -1 61
c-54 5 -266 9 -304 9c-34 0 -114 -2 -148 -4l4 21c12 1 60 5 93 12c4 11 5 157 5 271v31c-34 0 -164 -9 -198 -13c-27 -34 -109 -200 -133 -288c12 -5 56 -11 68 -13l4 -21c-22 2 -135 4 -153 4c-17 0 -88 -2 -112 -4l6 21c12 2 66 9 85 12c42 57 387 619 404 643
c-13 4 -52 9 -74 11l-5 21c20 -1 55 -2 87 -3c32 0 61 -1 68 -1c22 0 282 0 309 7c3 12 6 29 8 47l23 4c-5 -21 -18 -176 -20 -207l-22 7c0 7 1 52 0 72c-18 29 -197 42 -226 42c-3 -13 -7 -207 -7 -278zM421 360v33c0 98 0 231 -2 250l-5 1c-12 -23 -134 -219 -166 -280
c26 -7 156 -4 173 -4z" />
    <glyph glyph-name="ordfeminine" unicode="&#xaa;" horiz-adv-x="460" 
d="M263 387l3 19c17 2 35 4 47 7c-6 14 -37 89 -44 101c-21 2 -95 -7 -115 -8c-4 -8 -25 -68 -29 -93c11 -3 22 -5 38 -7l2 -19c-22 1 -63 3 -77 3c-18 0 -52 -1 -65 -3l1 19c15 2 27 4 40 7c20 19 125 257 123 265c-7 2 -21 4 -33 5v20c15 -1 56 -3 72 -3c13 0 63 2 90 3
l-2 -20c-13 -1 -26 -3 -37 -5c4 -11 33 -80 53 -127c15 -34 48 -108 67 -138c14 -3 29 -5 44 -7l1 -19c-13 1 -68 3 -94 3c-15 0 -71 -2 -85 -3zM163 536h100c-16 40 -41 104 -52 130c-14 -35 -37 -103 -48 -130z" />
    <glyph glyph-name="Lslash" unicode="&#x141;" horiz-adv-x="592" 
d="M54 683l-3 21c25 -2 112 -4 189 -4c51 0 148 2 165 4l-5 -21c-21 -2 -75 -10 -115 -14c-4 -27 -5 -176 -5 -237v-30c37 12 102 40 133 54c-2 -21 -4 -47 -5 -56c-36 -5 -98 -25 -128 -37v-39c0 -78 1 -277 5 -292c135 0 217 32 239 52c15 32 28 84 36 112l24 4
c-20 -82 -40 -204 -53 -328l-23 5c0 14 6 90 5 117c-22 2 -233 6 -308 6c-34 0 -126 -2 -154 -4l4 21c15 1 85 8 106 14c4 39 5 190 5 279v23c-17 -6 -75 -26 -107 -37c1 10 3 27 3 45c33 7 73 17 104 28v56c0 57 -1 217 -5 244c-22 4 -81 12 -107 14z" />
    <glyph glyph-name="Oslash" unicode="&#xd8;" horiz-adv-x="947" 
d="M130 -28l-66 12c22 19 64 55 103 97c-65 57 -112 137 -112 257c0 198 163 378 439 378c74 0 165 -6 254 -65c32 29 51 50 72 73l66 -16c-15 -10 -56 -46 -99 -85c68 -60 105 -148 105 -236c0 -245 -186 -403 -432 -403c-84 0 -180 13 -259 69c-22 -25 -43 -47 -71 -81z
M489 332c-68 -66 -145 -139 -214 -207c62 -63 147 -100 234 -100c143 0 261 129 261 289c0 81 -22 159 -67 226c-71 -66 -146 -140 -214 -208zM677 575c-59 65 -140 103 -220 103c-137 0 -287 -92 -287 -298c0 -88 34 -165 78 -223c71 67 139 136 207 201
c70 66 153 147 222 217z" />
    <glyph glyph-name="OE" unicode="&#x152;" horiz-adv-x="1110" 
d="M963 260l-19 8c1 21 2 48 2 68c-26 15 -134 21 -195 21v-19c0 -62 3 -280 7 -309c75 0 194 8 240 34c11 30 16 66 22 88l23 6c-7 -29 -29 -181 -33 -231l-21 4c0 27 0 45 -1 61c-29 5 -265 9 -301 9c-30 0 -59 -4 -93 -8s-74 -8 -126 -8c-105 0 -227 16 -321 113
c-75 78 -92 163 -92 245c0 191 171 374 425 374c53 0 94 -4 128 -8c33 -4 59 -8 80 -8c32 0 279 0 306 7c3 12 6 29 8 47l23 4c-5 -21 -18 -176 -20 -207l-22 7c0 7 1 52 0 72c-18 29 -184 42 -226 42c-3 -13 -6 -207 -6 -269v-17c61 0 183 6 207 15c4 15 7 29 10 43l21 2
c-7 -18 -21 -154 -26 -186zM637 340v74c0 91 -3 186 -6 222c-6 6 -64 39 -175 39c-148 0 -289 -93 -289 -294c0 -181 157 -355 336 -355c55 0 102 7 130 24c2 12 4 167 4 290z" />
    <glyph glyph-name="ordmasculine" unicode="&#xba;" horiz-adv-x="490" 
d="M239 382c-47 0 -98 8 -140 50c-36 36 -44 74 -44 110c0 89 74 174 199 174c49 0 88 -7 127 -39c35 -28 54 -71 54 -111c0 -109 -86 -184 -196 -184zM252 413c60 0 97 56 97 120c0 80 -45 153 -114 153c-43 0 -99 -37 -99 -125c0 -69 54 -148 116 -148z" />
    <glyph glyph-name="ae" unicode="&#xe6;" horiz-adv-x="894" 
d="M533 394v-34c62 0 184 7 208 16c4 15 7 29 10 43l21 2c-7 -20 -21 -154 -26 -186l-19 8c1 21 2 47 2 67c-31 16 -134 21 -196 21v-19c0 -36 4 -259 7 -283c76 0 200 8 241 34c11 35 16 66 22 88l23 6c-7 -29 -29 -181 -33 -231l-21 4c0 27 0 45 -1 61
c-54 5 -266 9 -304 9c-34 0 -114 -2 -148 -4l4 21c12 1 60 5 93 12c4 11 5 157 5 271v31c-34 0 -164 -9 -198 -13c-27 -34 -109 -200 -133 -288c12 -5 56 -11 68 -13l4 -21c-22 2 -135 4 -153 4c-17 0 -88 -2 -112 -4l6 21c12 2 66 9 85 12c42 57 387 619 404 643
c-13 4 -52 9 -74 11l-5 21c20 -1 55 -2 87 -3c32 0 61 -1 68 -1c22 0 282 0 309 7c3 12 6 29 8 47l23 4c-5 -21 -18 -176 -20 -207l-22 7c0 7 1 52 0 72c-18 29 -197 42 -226 42c-3 -13 -7 -207 -7 -278zM421 360v33c0 98 0 231 -2 250l-5 1c-12 -23 -134 -219 -166 -280
c26 -7 156 -4 173 -4z" />
    <glyph glyph-name="dotlessi" unicode="&#x131;" horiz-adv-x="440" 
d="M277 410v-62c0 -130 1 -297 5 -317c25 -6 85 -12 105 -14l5 -21c-22 2 -126 4 -188 4c-34 0 -126 -2 -156 -4l4 21c17 1 85 10 106 14c4 42 5 227 5 325v59c0 33 -1 220 -5 254c-20 4 -86 12 -105 14l-5 21c19 -2 111 -4 190 -4c51 0 137 2 154 4l-5 -21
c-20 -2 -69 -10 -105 -14c-4 -20 -5 -136 -5 -259z" />
    <glyph glyph-name="lslash" unicode="&#x142;" horiz-adv-x="592" 
d="M54 683l-3 21c25 -2 112 -4 189 -4c51 0 148 2 165 4l-5 -21c-21 -2 -75 -10 -115 -14c-4 -27 -5 -176 -5 -237v-30c37 12 102 40 133 54c-2 -21 -4 -47 -5 -56c-36 -5 -98 -25 -128 -37v-39c0 -78 1 -277 5 -292c135 0 217 32 239 52c15 32 28 84 36 112l24 4
c-20 -82 -40 -204 -53 -328l-23 5c0 14 6 90 5 117c-22 2 -233 6 -308 6c-34 0 -126 -2 -154 -4l4 21c15 1 85 8 106 14c4 39 5 190 5 279v23c-17 -6 -75 -26 -107 -37c1 10 3 27 3 45c33 7 73 17 104 28v56c0 57 -1 217 -5 244c-22 4 -81 12 -107 14z" />
    <glyph glyph-name="oslash" unicode="&#xf8;" horiz-adv-x="947" 
d="M130 -28l-66 12c22 19 64 55 103 97c-65 57 -112 137 -112 257c0 198 163 378 439 378c74 0 165 -6 254 -65c32 29 51 50 72 73l66 -16c-15 -10 -56 -46 -99 -85c68 -60 105 -148 105 -236c0 -245 -186 -403 -432 -403c-84 0 -180 13 -259 69c-22 -25 -43 -47 -71 -81z
M489 332c-68 -66 -145 -139 -214 -207c62 -63 147 -100 234 -100c143 0 261 129 261 289c0 81 -22 159 -67 226c-71 -66 -146 -140 -214 -208zM677 575c-59 65 -140 103 -220 103c-137 0 -287 -92 -287 -298c0 -88 34 -165 78 -223c71 67 139 136 207 201
c70 66 153 147 222 217z" />
    <glyph glyph-name="oe" unicode="&#x153;" horiz-adv-x="1110" 
d="M963 260l-19 8c1 21 2 48 2 68c-26 15 -134 21 -195 21v-19c0 -62 3 -280 7 -309c75 0 194 8 240 34c11 30 16 66 22 88l23 6c-7 -29 -29 -181 -33 -231l-21 4c0 27 0 45 -1 61c-29 5 -265 9 -301 9c-30 0 -59 -4 -93 -8s-74 -8 -126 -8c-105 0 -227 16 -321 113
c-75 78 -92 163 -92 245c0 191 171 374 425 374c53 0 94 -4 128 -8c33 -4 59 -8 80 -8c32 0 279 0 306 7c3 12 6 29 8 47l23 4c-5 -21 -18 -176 -20 -207l-22 7c0 7 1 52 0 72c-18 29 -184 42 -226 42c-3 -13 -6 -207 -6 -269v-17c61 0 183 6 207 15c4 15 7 29 10 43l21 2
c-7 -18 -21 -154 -26 -186zM637 340v74c0 91 -3 186 -6 222c-6 6 -64 39 -175 39c-148 0 -289 -93 -289 -294c0 -181 157 -355 336 -355c55 0 102 7 130 24c2 12 4 167 4 290z" />
    <glyph glyph-name="germandbls" unicode="&#xdf;" horiz-adv-x="1104" 
d="M86 -95l-23 -6c2 14 16 125 16 164c0 26 6 134 3 158l23 -6c-1 -13 4 -70 7 -88c27 -64 86 -109 155 -109c79 0 142 52 142 126c0 81 -63 121 -128 163c-98 64 -176 120 -176 233c0 78 58 176 206 176c59 0 111 -12 135 -18c7 24 12 54 18 81l23 3
c-14 -99 -24 -192 -24 -274l-23 10c0 34 -2 58 -4 76c-11 36 -63 90 -133 90c-86 0 -122 -55 -122 -100c0 -65 68 -100 144 -148c83 -52 167 -108 167 -234c0 -139 -110 -218 -246 -218c-48 0 -110 10 -138 25c-5 -19 -15 -67 -22 -104zM638 -95l-23 -6c2 14 16 125 16 164
c0 26 6 134 3 158l23 -6c-1 -13 4 -70 7 -88c27 -64 86 -109 155 -109c79 0 142 52 142 126c0 81 -63 121 -128 163c-98 64 -176 120 -176 233c0 78 58 176 206 176c59 0 111 -12 135 -18c7 24 12 54 18 81l23 3c-14 -99 -24 -192 -24 -274l-23 10c0 34 -2 58 -4 76
c-11 36 -63 90 -133 90c-86 0 -122 -55 -122 -100c0 -65 68 -100 144 -148c83 -52 167 -108 167 -234c0 -139 -110 -218 -246 -218c-48 0 -110 10 -138 25c-5 -19 -15 -67 -22 -104z" />
    <glyph glyph-name="onesuperior" unicode="&#xb9;" horiz-adv-x="360" 
d="M146 491v39c0 27 1 105 -3 125c-22 -1 -54 -5 -92 -10l-11 19c29 7 143 36 191 52c-3 -25 -10 -115 -10 -181v-33c0 -77 4 -162 7 -180c13 -3 71 -9 84 -11l4 -21c-17 1 -102 4 -131 4c-34 0 -127 -3 -144 -4l2 21c15 2 85 8 98 11c5 26 5 111 5 169z" />
    <glyph glyph-name="logicalnot" unicode="&#xac;" 
d="M78 423h460c-3 -57 -3 -200 0 -262l-68 -8c6 55 14 145 16 219c-66 3 -120 3 -186 2c-87 -1 -160 -6 -230 -14z" />
    <glyph glyph-name="mu" unicode="&#xb5;" horiz-adv-x="603" 
d="M164 43c1 -91 21 -234 40 -297l-2 -6s-68 10 -100 21c-1 23 3 71 3 225v328c0 36 -1 77 -5 112l92 15c4 -24 5 -79 5 -113v-161c0 -73 48 -121 92 -121c47 0 77 30 97 57v324l91 14v-332c0 -62 34 -77 88 -47l10 -27c-28 -22 -68 -47 -99 -47c-51 0 -70 44 -82 76
c-29 -39 -62 -76 -120 -76c-36 0 -85 23 -110 55z" />
    <glyph glyph-name="trademark" unicode="&#x2122;" horiz-adv-x="464" 
d="M260 654c-2 -12 -10 -68 -14 -100l24 -4v-11c-12 1 -35 2 -42 2c-9 0 -24 -1 -35 -2l2 11l23 4c2 7 8 34 15 62c6 27 13 54 15 63l-25 3v13c18 -1 32 -1 43 -1s27 0 45 1l-3 -13l-20 -1c5 -13 31 -69 38 -85c9 16 35 73 39 84l-20 2l-2 13c17 -1 33 -1 42 -1s23 0 40 1
l-4 -13l-19 -1c6 -24 25 -107 32 -127l21 -4l2 -11c-14 1 -33 2 -43 2c-12 0 -28 -1 -41 -2v11l21 4c-1 6 -4 26 -9 46s-10 41 -12 49c-9 -21 -49 -101 -56 -114c-6 11 -49 104 -57 119zM196 679c-2 -14 -3 -30 -3 -35l-13 3v22c-7 4 -29 5 -52 6v-56c0 -16 -1 -49 0 -65
l31 -4v-11c-21 1 -37 2 -52 2c-16 0 -28 -1 -49 -2v11l28 4c2 18 2 51 2 69v54c-37 0 -47 -4 -53 -7l-3 -22l-15 -2c1 16 4 47 3 65h14l2 -15c7 -1 40 -2 72 -2c34 0 69 0 77 1l2 14l16 2c-3 -5 -5 -18 -7 -32z" />
    <glyph glyph-name="Eth" unicode="&#xd0;" horiz-adv-x="940" 
d="M476 392l-11 -48c-81 3 -141 5 -188 6v-19c0 -52 3 -241 7 -276c40 -14 97 -18 115 -18c179 0 368 106 368 328c0 83 -29 166 -110 229c-75 58 -169 73 -293 73c-27 0 -59 -1 -80 -5c-3 -14 -7 -193 -7 -260v-18c41 0 133 -1 199 8zM54 340l11 45c36 -3 67 -1 98 -1v37
c0 45 -2 228 -7 248c-26 5 -82 12 -106 14l-2 21c15 -2 123 -4 178 -4c35 0 154 4 218 4c116 0 218 -15 282 -45c117 -55 164 -146 164 -238c0 -216 -166 -423 -537 -423c-43 0 -281 -1 -305 -2l4 21c19 1 80 7 104 14c5 17 7 195 7 295v23c-35 -1 -69 -2 -109 -9z" />
    <glyph glyph-name="onehalf" unicode="&#xbd;" horiz-adv-x="865" 
d="M657 728l-467 -800l-35 27l464 797zM126 491v39c0 27 1 105 -3 125c-22 -1 -54 -5 -92 -10l-11 19c29 7 143 36 191 52c-3 -25 -10 -115 -10 -181v-33c0 -77 4 -162 7 -180c13 -3 71 -9 84 -11l4 -21c-17 1 -102 4 -131 4c-34 0 -127 -3 -144 -4l2 21c15 2 85 8 98 11
c5 26 5 111 5 169zM807 -47l-19 4l-4 43h-285c44 36 82 73 122 109c51 47 106 108 106 180c0 62 -47 100 -96 100c-21 0 -49 -6 -59 -14l-15 -83l-20 -4c5 59 12 116 12 165l18 -5l5 -35c16 4 51 9 83 9c104 0 156 -45 156 -107c0 -59 -35 -118 -118 -189
c-33 -28 -67 -53 -100 -75v-2h54c70 0 122 9 143 21l18 56l20 2c-11 -44 -18 -131 -21 -175z" />
    <glyph glyph-name="plusminus" unicode="&#xb1;" 
d="M343 591c-7 -61 -12 -100 -14 -177h206l-8 -53c-74 6 -124 5 -199 4c-1 -64 2 -125 5 -180l-68 -8c7 63 11 107 13 188c-77 -2 -142 -7 -203 -14l8 63h196c1 62 -2 116 -4 169zM527 82c-74 7 -154 6 -229 4c-77 -1 -162 -6 -223 -14l8 63h215h237z" />
    <glyph glyph-name="Thorn" unicode="&#xde;" horiz-adv-x="649" 
d="M273 418v-42c0 -85 0 -317 2 -345c23 -4 98 -11 124 -14l5 -21c-27 2 -140 4 -183 4c-50 0 -145 -2 -173 -4l5 21c14 2 84 9 105 14c4 44 5 257 5 343v47c0 36 -1 216 -5 248c-14 4 -80 12 -105 14l-5 21c22 -2 117 -4 174 -4c51 0 139 2 167 4l-5 -21
c-22 -2 -76 -10 -106 -14l-3 -109c54 0 167 1 236 -26c91 -36 98 -101 98 -120c0 -61 -24 -107 -69 -147c-69 -60 -159 -81 -220 -89l3 29c72 12 167 51 167 169c0 61 -35 101 -72 122c-30 18 -79 29 -143 31c-1 -26 -2 -73 -2 -111z" />
    <glyph glyph-name="onequarter" unicode="&#xbc;" horiz-adv-x="865" 
d="M641 124h-228c75 73 225 240 304 319c-3 -22 -5 -172 -5 -255v-26c23 0 55 4 66 10c6 17 10 39 15 58l20 1c-3 -24 -13 -62 -11 -151l-20 3c-1 13 -3 32 -5 38c-18 3 -39 3 -65 3v-19c0 -34 1 -66 3 -79c10 -2 57 -7 70 -8l3 -20c-14 1 -94 2 -126 2
c-22 0 -103 -1 -121 -2l2 20c10 1 77 7 95 8c2 17 3 50 3 77v21zM641 162v168c-34 -36 -95 -104 -155 -169zM673 728l-468 -798l-35 25l465 797zM142 491v39c0 27 1 105 -3 125c-22 -1 -54 -5 -92 -10l-11 19c29 7 143 36 191 52c-3 -25 -10 -115 -10 -181v-33
c0 -77 4 -162 7 -180c13 -3 71 -9 84 -11l4 -21c-17 1 -102 4 -131 4c-34 0 -127 -3 -144 -4l2 21c15 2 85 8 98 11c5 26 5 111 5 169z" />
    <glyph glyph-name="divide" unicode="&#xf7;" 
d="M350 152l-97 -18l-3 88l95 18zM350 473l-97 -18l-3 88l95 18zM82 368h453l-8 -53c-80 7 -142 5 -222 4c-87 -1 -161 -6 -231 -14z" />
    <glyph glyph-name="brokenbar" unicode="&#xa6;" horiz-adv-x="281" 
d="M174 339h-66v364h66v-364zM174 -182h-66v364h66v-364z" />
    <glyph glyph-name="degree" unicode="&#xb0;" horiz-adv-x="373" 
d="M188 665c82 0 145 -61 145 -145c0 -91 -66 -144 -146 -144s-147 53 -147 144c0 85 64 145 148 145zM185 623c-50 0 -88 -41 -88 -103c0 -56 38 -103 91 -103c54 0 89 43 89 101c0 56 -31 105 -92 105z" />
    <glyph glyph-name="thorn" unicode="&#xfe;" horiz-adv-x="649" 
d="M273 418v-42c0 -85 0 -317 2 -345c23 -4 98 -11 124 -14l5 -21c-27 2 -140 4 -183 4c-50 0 -145 -2 -173 -4l5 21c14 2 84 9 105 14c4 44 5 257 5 343v47c0 36 -1 216 -5 248c-14 4 -80 12 -105 14l-5 21c22 -2 117 -4 174 -4c51 0 139 2 167 4l-5 -21
c-22 -2 -76 -10 -106 -14l-3 -109c54 0 167 1 236 -26c91 -36 98 -101 98 -120c0 -61 -24 -107 -69 -147c-69 -60 -159 -81 -220 -89l3 29c72 12 167 51 167 169c0 61 -35 101 -72 122c-30 18 -79 29 -143 31c-1 -26 -2 -73 -2 -111z" />
    <glyph glyph-name="threequarters" unicode="&#xbe;" horiz-adv-x="865" 
d="M649 124h-228c75 73 225 240 304 319c-3 -22 -5 -172 -5 -255v-26c23 0 55 4 66 10c6 17 10 39 15 58l20 1c-3 -24 -13 -62 -11 -151l-20 3c-1 13 -3 32 -5 38c-18 3 -39 3 -65 3v-19c0 -34 1 -66 3 -79c10 -2 57 -7 70 -8l3 -20c-14 1 -94 2 -126 2
c-22 0 -103 -1 -121 -2l2 20c10 1 77 7 95 8c2 17 3 50 3 77v21zM649 162v168c-34 -36 -95 -104 -155 -169zM177 708h157c-33 -34 -111 -118 -134 -152c91 -19 139 -63 139 -111c0 -47 -24 -92 -75 -125c-37 -23 -83 -34 -131 -34c-21 0 -39 1 -61 5l-10 -23l-19 -2
c8 32 12 82 16 132l19 -7v-48c22 -20 48 -25 70 -25c68 0 113 33 113 91c0 68 -70 104 -130 113c19 24 85 102 110 134h-81c-29 0 -54 -3 -73 -10l-10 -37l-22 -5c6 33 10 85 14 164l20 -9v-48c15 -3 49 -3 88 -3zM681 728l-467 -798l-36 25l465 797z" />
    <glyph glyph-name="twosuperior" unicode="&#xb2;" horiz-adv-x="410" 
d="M342 247l-19 4l-4 43h-285c44 36 82 73 122 109c51 47 106 108 106 180c0 62 -47 100 -96 100c-21 0 -49 -6 -59 -14l-15 -83l-20 -4c5 59 12 116 12 165l18 -5l5 -35c8 2 21 4 36 6c14 2 31 3 47 3c104 0 156 -45 156 -107c0 -59 -35 -118 -118 -189
c-33 -28 -67 -53 -100 -75v-2h54c70 0 122 9 143 21l18 56l20 2c-11 -44 -18 -131 -21 -175z" />
    <glyph glyph-name="registered" unicode="&#xae;" horiz-adv-x="384" 
d="M357 563c0 -83 -71 -149 -165 -149s-165 66 -165 149s71 151 165 151s165 -68 165 -151zM327 560c0 74 -65 134 -138 134s-131 -54 -131 -128s65 -133 138 -133c71 0 131 53 131 127zM229 611c0 13 -11 30 -57 30v-69c8 -1 20 -3 32 2c9 3 25 15 25 37zM274 481
c-10 6 -79 70 -86 77l-15 -2v-4c0 -15 1 -44 2 -56l23 -4l2 -11c-27 1 -59 1 -85 0l2 11l23 5v73v14v54l-21 3l-2 12h49c18 0 32 0 44 -1c11 0 21 -3 30 -6c13 -5 22 -14 22 -28c0 -16 -17 -36 -38 -47c6 -10 48 -68 62 -86z" />
    <glyph glyph-name="minus" unicode="&#x2212;" 
d="M83 368h452l-8 -53c-80 7 -146 5 -226 4c-87 -1 -156 -6 -226 -14z" />
    <glyph glyph-name="eth" unicode="&#xf0;" horiz-adv-x="940" 
d="M476 392l-11 -48c-81 3 -141 5 -188 6v-19c0 -52 3 -241 7 -276c40 -14 97 -18 115 -18c179 0 368 106 368 328c0 83 -29 166 -110 229c-75 58 -169 73 -293 73c-27 0 -59 -1 -80 -5c-3 -14 -7 -193 -7 -260v-18c41 0 133 -1 199 8zM54 340l11 45c36 -3 67 -1 98 -1v37
c0 45 -2 228 -7 248c-26 5 -82 12 -106 14l-2 21c15 -2 123 -4 178 -4c35 0 154 4 218 4c116 0 218 -15 282 -45c117 -55 164 -146 164 -238c0 -216 -166 -423 -537 -423c-43 0 -281 -1 -305 -2l4 21c19 1 80 7 104 14c5 17 7 195 7 295v23c-35 -1 -69 -2 -109 -9z" />
    <glyph glyph-name="multiply" unicode="&#xd7;" 
d="M98 499l41 54c36 -39 121 -137 165 -180l169 182l43 -48c-48 -38 -127 -107 -183 -160c59 -56 138 -127 187 -166l-41 -54c-37 41 -129 149 -175 193c-54 -52 -126 -140 -174 -197l-39 44l184 179c-56 53 -129 115 -177 153z" />
    <glyph glyph-name="threesuperior" unicode="&#xb3;" horiz-adv-x="420" 
d="M195 708h157c-33 -34 -111 -118 -134 -152c91 -19 139 -63 139 -111c0 -47 -24 -92 -75 -125c-37 -23 -83 -34 -131 -34c-21 0 -39 1 -61 5l-10 -23l-19 -2c8 32 12 82 16 132l19 -7v-48c22 -20 48 -25 70 -25c68 0 113 33 113 91c0 68 -70 104 -130 113
c19 24 85 102 110 134h-81c-29 0 -54 -3 -73 -10l-10 -37l-22 -5c6 33 10 85 14 164l20 -9v-48c15 -3 49 -3 88 -3z" />
    <glyph glyph-name="copyright" unicode="&#xa9;" horiz-adv-x="840" 
d="M800 343c0 -203 -163 -366 -380 -366s-380 163 -380 366s163 366 380 366c225 0 380 -175 380 -366zM592 208l-10 -37c-15 -10 -59 -37 -141 -37c-12 0 -70 1 -116 24c-75 37 -114 103 -114 171s26 136 88 180c51 36 107 42 150 42c42 0 84 -12 98 -19c4 11 10 29 12 39
l17 2l-12 -171l-18 3c0 8 -3 36 -4 59c-14 24 -52 57 -106 57c-97 0 -141 -83 -141 -162c0 -117 82 -190 177 -190c40 0 85 16 120 39zM416 672c-171 0 -318 -140 -318 -323s156 -335 327 -335c165 0 321 144 321 327s-159 331 -330 331z" />
    <glyph glyph-name="Aacute" unicode="&#xc1;" horiz-adv-x="712" 
d="M422 -4l5 21c35 3 70 7 101 14c-18 52 -89 264 -105 293c-35 0 -194 -7 -231 -13c-6 -14 -60 -203 -70 -280c25 -7 58 -11 86 -14l4 -21c-31 2 -122 4 -151 4c-26 0 -93 -2 -116 -4l3 21c29 3 59 8 86 14c36 63 235 601 249 639c-22 6 -55 10 -79 13l-1 21
c30 -2 113 -4 130 -4c42 0 142 2 171 4l-3 -21c-26 -3 -53 -7 -76 -13c12 -44 67 -201 105 -306c28 -77 90 -245 136 -333c29 -6 58 -10 88 -14l3 -21c-12 2 -113 4 -166 4c-29 0 -142 -2 -169 -4zM416 354c-22 66 -85 244 -102 299h-2c-31 -89 -96 -262 -106 -295zM497 926
l38 -77c-22 2 -208 -73 -224 -81l-12 32c10 2 166 104 198 126z" />
    <glyph glyph-name="Acircumflex" unicode="&#xc2;" horiz-adv-x="712" 
d="M422 -4l5 21c35 3 70 7 101 14c-18 52 -89 264 -105 293c-35 0 -194 -7 -231 -13c-6 -14 -60 -203 -70 -280c25 -7 58 -11 86 -14l4 -21c-31 2 -122 4 -151 4c-26 0 -93 -2 -116 -4l3 21c29 3 59 8 86 14c36 63 235 601 249 639c-22 6 -55 10 -79 13l-1 21
c30 -2 113 -4 130 -4c42 0 142 2 171 4l-3 -21c-26 -3 -53 -7 -76 -13c12 -44 67 -201 105 -306c28 -77 90 -245 136 -333c29 -6 58 -10 88 -14l3 -21c-12 2 -113 4 -166 4c-29 0 -142 -2 -169 -4zM416 354c-22 66 -85 244 -102 299h-2c-31 -89 -96 -262 -106 -295zM243 772
l-19 23c23 20 110 102 127 122c39 -35 118 -106 137 -121l-19 -24c-11 6 -99 55 -120 66c-25 -11 -93 -56 -106 -66z" />
    <glyph glyph-name="Adieresis" unicode="&#xc4;" horiz-adv-x="712" 
d="M422 -4l5 21c35 3 70 7 101 14c-18 52 -89 264 -105 293c-35 0 -194 -7 -231 -13c-6 -14 -60 -203 -70 -280c25 -7 58 -11 86 -14l4 -21c-31 2 -122 4 -151 4c-26 0 -93 -2 -116 -4l3 21c29 3 59 8 86 14c36 63 235 601 249 639c-22 6 -55 10 -79 13l-1 21
c30 -2 113 -4 130 -4c42 0 142 2 171 4l-3 -21c-26 -3 -53 -7 -76 -13c12 -44 67 -201 105 -306c28 -77 90 -245 136 -333c29 -6 58 -10 88 -14l3 -21c-12 2 -113 4 -166 4c-29 0 -142 -2 -169 -4zM416 354c-22 66 -85 244 -102 299h-2c-31 -89 -96 -262 -106 -295zM187 819
l48 78l77 -52l-50 -77zM401 821l49 76l76 -52l-51 -76z" />
    <glyph glyph-name="Agrave" unicode="&#xc0;" horiz-adv-x="712" 
d="M422 -4l5 21c35 3 70 7 101 14c-18 52 -89 264 -105 293c-35 0 -194 -7 -231 -13c-6 -14 -60 -203 -70 -280c25 -7 58 -11 86 -14l4 -21c-31 2 -122 4 -151 4c-26 0 -93 -2 -116 -4l3 21c29 3 59 8 86 14c36 63 235 601 249 639c-22 6 -55 10 -79 13l-1 21
c30 -2 113 -4 130 -4c42 0 142 2 171 4l-3 -21c-26 -3 -53 -7 -76 -13c12 -44 67 -201 105 -306c28 -77 90 -245 136 -333c29 -6 58 -10 88 -14l3 -21c-12 2 -113 4 -166 4c-29 0 -142 -2 -169 -4zM416 354c-22 66 -85 244 -102 299h-2c-31 -89 -96 -262 -106 -295zM178 849
l39 77c32 -22 188 -124 198 -126l-12 -32c-17 8 -203 83 -225 81z" />
    <glyph glyph-name="Aring" unicode="&#xc5;" horiz-adv-x="712" 
d="M422 -4l5 21c35 3 70 7 101 14c-18 52 -89 264 -105 293c-35 0 -194 -7 -231 -13c-6 -14 -60 -203 -70 -280c25 -7 58 -11 86 -14l4 -21c-31 2 -122 4 -151 4c-26 0 -93 -2 -116 -4l3 21c29 3 59 8 86 14c36 63 235 601 249 639c-22 6 -55 10 -79 13l-1 21
c30 -2 113 -4 130 -4c42 0 142 2 171 4l-3 -21c-26 -3 -53 -7 -76 -13c12 -44 67 -201 105 -306c28 -77 90 -245 136 -333c29 -6 58 -10 88 -14l3 -21c-12 2 -113 4 -166 4c-29 0 -142 -2 -169 -4zM416 354c-22 66 -85 244 -102 299h-2c-31 -89 -96 -262 -106 -295zM342 773
c-56 0 -101 23 -101 65c0 50 66 89 121 89c77 0 110 -28 110 -64c0 -37 -47 -90 -130 -90zM297 855c0 -39 35 -62 63 -62s53 21 53 53c0 28 -21 61 -60 61c-25 0 -56 -21 -56 -52z" />
    <glyph glyph-name="Atilde" unicode="&#xc3;" horiz-adv-x="712" 
d="M422 -4l5 21c35 3 70 7 101 14c-18 52 -89 264 -105 293c-35 0 -194 -7 -231 -13c-6 -14 -60 -203 -70 -280c25 -7 58 -11 86 -14l4 -21c-31 2 -122 4 -151 4c-26 0 -93 -2 -116 -4l3 21c29 3 59 8 86 14c36 63 235 601 249 639c-22 6 -55 10 -79 13l-1 21
c30 -2 113 -4 130 -4c42 0 142 2 171 4l-3 -21c-26 -3 -53 -7 -76 -13c12 -44 67 -201 105 -306c28 -77 90 -245 136 -333c29 -6 58 -10 88 -14l3 -21c-12 2 -113 4 -166 4c-29 0 -142 -2 -169 -4zM416 354c-22 66 -85 244 -102 299h-2c-31 -89 -96 -262 -106 -295zM488 872
l28 -6c-10 -29 -45 -85 -78 -85c-21 0 -50 11 -76 22c-30 12 -61 23 -78 23c-18 0 -40 -4 -59 -36l-28 6c9 26 47 92 77 92c21 0 43 -11 71 -22s60 -25 89 -25c13 0 35 -2 54 31z" />
    <glyph glyph-name="Ccedilla" unicode="&#xc7;" horiz-adv-x="809" 
d="M456 -15l-51 -61c52 -15 89 -40 89 -81c0 -76 -112 -108 -188 -104l9 32c68 -2 101 27 101 60c0 31 -23 57 -78 72l70 86c-45 5 -100 16 -146 39c-130 64 -207 178 -207 306c0 138 70 240 158 299c104 70 197 83 298 83c88 0 181 -18 209 -26c6 13 18 77 21 89l23 5
c-15 -110 -21 -214 -22 -309l-23 7c0 19 -3 66 -6 83c-19 44 -112 116 -241 116c-182 0 -297 -132 -297 -288c0 -195 161 -360 372 -360c76 0 166 12 237 54l-14 -43c-23 -19 -124 -60 -281 -60c-8 0 -19 0 -33 1z" />
    <glyph glyph-name="Eacute" unicode="&#xc9;" horiz-adv-x="637" 
d="M163 343v46c0 90 -3 249 -7 280c-19 4 -80 11 -104 14l-4 21c24 -1 57 -2 90 -3c33 0 66 -1 88 -1c32 0 267 0 294 7c3 12 6 29 8 47l23 4c-5 -21 -18 -176 -20 -207l-22 7c0 7 1 52 0 72c-18 29 -172 42 -225 42c-3 -14 -7 -207 -7 -266v-20c86 0 183 7 207 16
c5 15 8 29 10 43l21 2c-3 -18 -21 -155 -26 -187l-19 8c1 21 2 47 2 67c-31 16 -109 22 -195 22v-20c0 -61 4 -279 7 -308c100 0 194 8 240 34c11 35 16 66 22 88l23 6c-7 -29 -29 -181 -33 -231l-21 4c0 27 0 45 -1 61c-29 5 -251 9 -314 9c-34 0 -113 -2 -152 -4l5 21
c16 1 76 7 103 14c4 18 7 202 7 312zM459 926l38 -77c-22 2 -208 -73 -224 -81l-12 32c10 2 166 104 198 126z" />
    <glyph glyph-name="Ecircumflex" unicode="&#xca;" horiz-adv-x="637" 
d="M163 343v46c0 90 -3 249 -7 280c-19 4 -80 11 -104 14l-4 21c24 -1 57 -2 90 -3c33 0 66 -1 88 -1c32 0 267 0 294 7c3 12 6 29 8 47l23 4c-5 -21 -18 -176 -20 -207l-22 7c0 7 1 52 0 72c-18 29 -172 42 -225 42c-3 -14 -7 -207 -7 -266v-20c86 0 183 7 207 16
c5 15 8 29 10 43l21 2c-3 -18 -21 -155 -26 -187l-19 8c1 21 2 47 2 67c-31 16 -109 22 -195 22v-20c0 -61 4 -279 7 -308c100 0 194 8 240 34c11 35 16 66 22 88l23 6c-7 -29 -29 -181 -33 -231l-21 4c0 27 0 45 -1 61c-29 5 -251 9 -314 9c-34 0 -113 -2 -152 -4l5 21
c16 1 76 7 103 14c4 18 7 202 7 312zM205 772l-19 23c23 20 110 102 127 122c39 -35 118 -106 137 -121l-19 -24c-11 6 -99 55 -120 66c-25 -11 -93 -56 -106 -66z" />
    <glyph glyph-name="Edieresis" unicode="&#xcb;" horiz-adv-x="637" 
d="M163 343v46c0 90 -3 249 -7 280c-19 4 -80 11 -104 14l-4 21c24 -1 57 -2 90 -3c33 0 66 -1 88 -1c32 0 267 0 294 7c3 12 6 29 8 47l23 4c-5 -21 -18 -176 -20 -207l-22 7c0 7 1 52 0 72c-18 29 -172 42 -225 42c-3 -14 -7 -207 -7 -266v-20c86 0 183 7 207 16
c5 15 8 29 10 43l21 2c-3 -18 -21 -155 -26 -187l-19 8c1 21 2 47 2 67c-31 16 -109 22 -195 22v-20c0 -61 4 -279 7 -308c100 0 194 8 240 34c11 35 16 66 22 88l23 6c-7 -29 -29 -181 -33 -231l-21 4c0 27 0 45 -1 61c-29 5 -251 9 -314 9c-34 0 -113 -2 -152 -4l5 21
c16 1 76 7 103 14c4 18 7 202 7 312zM149 819l48 78l77 -52l-50 -77zM363 821l49 76l76 -52l-51 -76z" />
    <glyph glyph-name="Egrave" unicode="&#xc8;" horiz-adv-x="637" 
d="M163 343v46c0 90 -3 249 -7 280c-19 4 -80 11 -104 14l-4 21c24 -1 57 -2 90 -3c33 0 66 -1 88 -1c32 0 267 0 294 7c3 12 6 29 8 47l23 4c-5 -21 -18 -176 -20 -207l-22 7c0 7 1 52 0 72c-18 29 -172 42 -225 42c-3 -14 -7 -207 -7 -266v-20c86 0 183 7 207 16
c5 15 8 29 10 43l21 2c-3 -18 -21 -155 -26 -187l-19 8c1 21 2 47 2 67c-31 16 -109 22 -195 22v-20c0 -61 4 -279 7 -308c100 0 194 8 240 34c11 35 16 66 22 88l23 6c-7 -29 -29 -181 -33 -231l-21 4c0 27 0 45 -1 61c-29 5 -251 9 -314 9c-34 0 -113 -2 -152 -4l5 21
c16 1 76 7 103 14c4 18 7 202 7 312zM170 849l39 77c32 -22 188 -124 198 -126l-12 -32c-17 8 -203 83 -225 81z" />
    <glyph glyph-name="Iacute" unicode="&#xcd;" horiz-adv-x="440" 
d="M277 410v-62c0 -130 1 -297 5 -317c25 -6 85 -12 105 -14l5 -21c-22 2 -126 4 -188 4c-34 0 -126 -2 -156 -4l4 21c17 1 85 10 106 14c4 42 5 227 5 325v59c0 33 -1 220 -5 254c-20 4 -86 12 -105 14l-5 21c19 -2 111 -4 190 -4c51 0 137 2 154 4l-5 -21
c-20 -2 -69 -10 -105 -14c-4 -20 -5 -136 -5 -259zM361 926l38 -77c-22 2 -208 -73 -224 -81l-12 32c10 2 166 104 198 126z" />
    <glyph glyph-name="Icircumflex" unicode="&#xce;" horiz-adv-x="440" 
d="M277 410v-62c0 -130 1 -297 5 -317c25 -6 85 -12 105 -14l5 -21c-22 2 -126 4 -188 4c-34 0 -126 -2 -156 -4l4 21c17 1 85 10 106 14c4 42 5 227 5 325v59c0 33 -1 220 -5 254c-20 4 -86 12 -105 14l-5 21c19 -2 111 -4 190 -4c51 0 137 2 154 4l-5 -21
c-20 -2 -69 -10 -105 -14c-4 -20 -5 -136 -5 -259zM107 772l-19 23c23 20 110 102 127 122c39 -35 118 -106 137 -121l-19 -24c-11 6 -99 55 -120 66c-25 -11 -93 -56 -106 -66z" />
    <glyph glyph-name="Idieresis" unicode="&#xcf;" horiz-adv-x="440" 
d="M277 410v-62c0 -130 1 -297 5 -317c25 -6 85 -12 105 -14l5 -21c-22 2 -126 4 -188 4c-34 0 -126 -2 -156 -4l4 21c17 1 85 10 106 14c4 42 5 227 5 325v59c0 33 -1 220 -5 254c-20 4 -86 12 -105 14l-5 21c19 -2 111 -4 190 -4c51 0 137 2 154 4l-5 -21
c-20 -2 -69 -10 -105 -14c-4 -20 -5 -136 -5 -259zM51 819l48 78l77 -52l-50 -77zM265 821l49 76l76 -52l-51 -76z" />
    <glyph glyph-name="Igrave" unicode="&#xcc;" horiz-adv-x="440" 
d="M277 410v-62c0 -130 1 -297 5 -317c25 -6 85 -12 105 -14l5 -21c-22 2 -126 4 -188 4c-34 0 -126 -2 -156 -4l4 21c17 1 85 10 106 14c4 42 5 227 5 325v59c0 33 -1 220 -5 254c-20 4 -86 12 -105 14l-5 21c19 -2 111 -4 190 -4c51 0 137 2 154 4l-5 -21
c-20 -2 -69 -10 -105 -14c-4 -20 -5 -136 -5 -259zM42 849l39 77c32 -22 188 -124 198 -126l-12 -32c-17 8 -203 83 -225 81z" />
    <glyph glyph-name="Ntilde" unicode="&#xd1;" horiz-adv-x="908" 
d="M44 679l-4 21c56 2 150 3 228 7c22 -34 223 -286 240 -304c26 -28 185 -221 217 -248c0 111 -1 462 -21 514c-20 4 -73 12 -101 14l-5 21c19 -2 127 -4 149 -4s105 2 126 4l-4 -21c-13 -2 -49 -10 -76 -14c-12 -39 -17 -180 -19 -212c-3 -47 -11 -467 -17 -507
c-30 28 -307 351 -330 377c-14 15 -204 247 -237 285c-3 -20 9 -545 22 -581c15 -5 90 -12 109 -14l3 -21c-18 2 -122 4 -148 4c-29 0 -107 -2 -136 -4l3 21c28 4 60 7 83 14c17 42 28 603 28 636c-23 5 -72 10 -110 12zM616 872l28 -6c-10 -29 -45 -85 -78 -85
c-21 0 -50 11 -76 22c-30 12 -61 23 -78 23c-18 0 -40 -4 -59 -36l-28 6c9 26 47 92 77 92c21 0 43 -11 71 -22s60 -25 89 -25c13 0 35 -2 54 31z" />
    <glyph glyph-name="Oacute" unicode="&#xd3;" horiz-adv-x="947" 
d="M460 -16c-101 0 -216 17 -309 112c-73 75 -96 148 -96 242c0 198 163 378 439 378c106 0 190 -17 277 -81c79 -58 121 -155 121 -248c0 -245 -186 -403 -432 -403zM509 25c143 0 261 129 261 289c0 212 -147 364 -313 364c-137 0 -287 -92 -287 -298
c0 -179 144 -355 339 -355zM614 926l38 -77c-22 2 -208 -73 -224 -81l-12 32c10 2 166 104 198 126z" />
    <glyph glyph-name="Ocircumflex" unicode="&#xd4;" horiz-adv-x="947" 
d="M460 -16c-101 0 -216 17 -309 112c-73 75 -96 148 -96 242c0 198 163 378 439 378c106 0 190 -17 277 -81c79 -58 121 -155 121 -248c0 -245 -186 -403 -432 -403zM509 25c143 0 261 129 261 289c0 212 -147 364 -313 364c-137 0 -287 -92 -287 -298
c0 -179 144 -355 339 -355zM370 772l-19 23c23 20 110 102 127 122c39 -35 118 -106 137 -121l-19 -24c-11 6 -99 55 -120 66c-25 -11 -93 -56 -106 -66z" />
    <glyph glyph-name="Odieresis" unicode="&#xd6;" horiz-adv-x="947" 
d="M460 -16c-101 0 -216 17 -309 112c-73 75 -96 148 -96 242c0 198 163 378 439 378c106 0 190 -17 277 -81c79 -58 121 -155 121 -248c0 -245 -186 -403 -432 -403zM509 25c143 0 261 129 261 289c0 212 -147 364 -313 364c-137 0 -287 -92 -287 -298
c0 -179 144 -355 339 -355zM304 819l48 78l77 -52l-50 -77zM518 821l49 76l76 -52l-51 -76z" />
    <glyph glyph-name="Ograve" unicode="&#xd2;" horiz-adv-x="947" 
d="M460 -16c-101 0 -216 17 -309 112c-73 75 -96 148 -96 242c0 198 163 378 439 378c106 0 190 -17 277 -81c79 -58 121 -155 121 -248c0 -245 -186 -403 -432 -403zM509 25c143 0 261 129 261 289c0 212 -147 364 -313 364c-137 0 -287 -92 -287 -298
c0 -179 144 -355 339 -355zM295 849l39 77c32 -22 188 -124 198 -126l-12 -32c-17 8 -203 83 -225 81z" />
    <glyph glyph-name="Otilde" unicode="&#xd5;" horiz-adv-x="947" 
d="M460 -16c-101 0 -216 17 -309 112c-73 75 -96 148 -96 242c0 198 163 378 439 378c106 0 190 -17 277 -81c79 -58 121 -155 121 -248c0 -245 -186 -403 -432 -403zM509 25c143 0 261 129 261 289c0 212 -147 364 -313 364c-137 0 -287 -92 -287 -298
c0 -179 144 -355 339 -355zM605 872l28 -6c-10 -29 -45 -85 -78 -85c-21 0 -50 11 -76 22c-30 12 -61 23 -78 23c-18 0 -40 -4 -59 -36l-28 6c9 26 47 92 77 92c21 0 43 -11 71 -22s60 -25 89 -25c13 0 35 -2 54 31z" />
    <glyph glyph-name="Scaron" unicode="&#x160;" horiz-adv-x="552" 
d="M86 -95l-23 -6c2 14 16 125 16 164c0 26 6 134 3 158l23 -6c-1 -13 4 -70 7 -88c27 -64 86 -109 155 -109c79 0 142 52 142 126c0 81 -63 121 -128 163c-98 64 -176 120 -176 233c0 78 58 176 206 176c59 0 111 -12 135 -18c7 24 12 54 18 81l23 3
c-14 -99 -24 -192 -24 -274l-23 10c0 34 -2 58 -4 76c-11 36 -63 90 -133 90c-86 0 -122 -55 -122 -100c0 -65 68 -100 144 -148c83 -52 167 -108 167 -234c0 -139 -110 -218 -246 -218c-48 0 -110 10 -138 25c-5 -19 -15 -67 -22 -104zM409 917l18 -24
c-21 -22 -107 -101 -126 -121c-39 31 -118 106 -137 121l19 24c8 -6 99 -59 120 -66c25 10 93 56 106 66z" />
    <glyph glyph-name="Uacute" unicode="&#xda;" horiz-adv-x="857" 
d="M131 287v156c0 90 -2 198 -5 226c-21 5 -52 10 -79 14l-3 21c28 -2 92 -4 169 -4c46 0 123 2 148 4l-5 -21c-27 -3 -72 -8 -104 -14c-3 -17 -5 -144 -5 -230v-133c0 -212 90 -284 198 -284c66 0 110 16 144 48c54 51 67 139 67 259v92c0 32 -1 215 -5 248
c-23 4 -83 12 -109 14l-7 21c25 -2 100 -4 162 -4c52 0 105 2 122 4l-6 -21c-17 -4 -44 -8 -70 -14c-3 -15 -5 -140 -5 -167v-48c0 -39 2 -87 2 -123c0 -113 -21 -209 -98 -277c-46 -41 -110 -70 -209 -70c-207 0 -302 128 -302 303zM599 926l38 -77
c-22 2 -208 -73 -224 -81l-12 32c10 2 166 104 198 126z" />
    <glyph glyph-name="Ucircumflex" unicode="&#xdb;" horiz-adv-x="857" 
d="M131 287v156c0 90 -2 198 -5 226c-21 5 -52 10 -79 14l-3 21c28 -2 92 -4 169 -4c46 0 123 2 148 4l-5 -21c-27 -3 -72 -8 -104 -14c-3 -17 -5 -144 -5 -230v-133c0 -212 90 -284 198 -284c66 0 110 16 144 48c54 51 67 139 67 259v92c0 32 -1 215 -5 248
c-23 4 -83 12 -109 14l-7 21c25 -2 100 -4 162 -4c52 0 105 2 122 4l-6 -21c-17 -4 -44 -8 -70 -14c-3 -15 -5 -140 -5 -167v-48c0 -39 2 -87 2 -123c0 -113 -21 -209 -98 -277c-46 -41 -110 -70 -209 -70c-207 0 -302 128 -302 303zM345 772l-19 23c23 20 110 102 127 122
c39 -35 118 -106 137 -121l-19 -24c-11 6 -99 55 -120 66c-25 -11 -93 -56 -106 -66z" />
    <glyph glyph-name="Udieresis" unicode="&#xdc;" horiz-adv-x="857" 
d="M131 287v156c0 90 -2 198 -5 226c-21 5 -52 10 -79 14l-3 21c28 -2 92 -4 169 -4c46 0 123 2 148 4l-5 -21c-27 -3 -72 -8 -104 -14c-3 -17 -5 -144 -5 -230v-133c0 -212 90 -284 198 -284c66 0 110 16 144 48c54 51 67 139 67 259v92c0 32 -1 215 -5 248
c-23 4 -83 12 -109 14l-7 21c25 -2 100 -4 162 -4c52 0 105 2 122 4l-6 -21c-17 -4 -44 -8 -70 -14c-3 -15 -5 -140 -5 -167v-48c0 -39 2 -87 2 -123c0 -113 -21 -209 -98 -277c-46 -41 -110 -70 -209 -70c-207 0 -302 128 -302 303zM279 819l48 78l77 -52l-50 -77zM493 821
l49 76l76 -52l-51 -76z" />
    <glyph glyph-name="Ugrave" unicode="&#xd9;" horiz-adv-x="857" 
d="M131 287v156c0 90 -2 198 -5 226c-21 5 -52 10 -79 14l-3 21c28 -2 92 -4 169 -4c46 0 123 2 148 4l-5 -21c-27 -3 -72 -8 -104 -14c-3 -17 -5 -144 -5 -230v-133c0 -212 90 -284 198 -284c66 0 110 16 144 48c54 51 67 139 67 259v92c0 32 -1 215 -5 248
c-23 4 -83 12 -109 14l-7 21c25 -2 100 -4 162 -4c52 0 105 2 122 4l-6 -21c-17 -4 -44 -8 -70 -14c-3 -15 -5 -140 -5 -167v-48c0 -39 2 -87 2 -123c0 -113 -21 -209 -98 -277c-46 -41 -110 -70 -209 -70c-207 0 -302 128 -302 303zM250 849l39 77
c32 -22 188 -124 198 -126l-12 -32c-17 8 -203 83 -225 81z" />
    <glyph glyph-name="Yacute" unicode="&#xdd;" horiz-adv-x="654" 
d="M286 220v32c0 14 0 40 -3 66c-8 26 -198 308 -244 351c-13 6 -50 10 -70 14l-4 21c17 -2 83 -4 174 -4c57 0 124 2 138 4l-5 -21c-18 -4 -63 -9 -86 -14c59 -104 161 -250 192 -303c16 29 170 262 173 303c-21 5 -65 12 -78 14l-3 21c15 -2 71 -4 126 -4c46 0 98 2 121 4
l-3 -21c-15 -3 -47 -8 -68 -14c-22 -7 -228 -299 -242 -343c-3 -17 -4 -47 -4 -71v-38c0 -27 1 -161 5 -186c12 -3 78 -11 97 -14l2 -21c-21 2 -111 4 -179 4c-36 0 -109 -2 -137 -4l5 21c19 2 65 8 88 14c4 15 5 125 5 189zM517 926l38 -77c-22 2 -208 -73 -224 -81l-12 32
c10 2 166 104 198 126z" />
    <glyph glyph-name="Ydieresis" unicode="&#x178;" horiz-adv-x="654" 
d="M286 220v32c0 14 0 40 -3 66c-8 26 -198 308 -244 351c-13 6 -50 10 -70 14l-4 21c17 -2 83 -4 174 -4c57 0 124 2 138 4l-5 -21c-18 -4 -63 -9 -86 -14c59 -104 161 -250 192 -303c16 29 170 262 173 303c-21 5 -65 12 -78 14l-3 21c15 -2 71 -4 126 -4c46 0 98 2 121 4
l-3 -21c-15 -3 -47 -8 -68 -14c-22 -7 -228 -299 -242 -343c-3 -17 -4 -47 -4 -71v-38c0 -27 1 -161 5 -186c12 -3 78 -11 97 -14l2 -21c-21 2 -111 4 -179 4c-36 0 -109 -2 -137 -4l5 21c19 2 65 8 88 14c4 15 5 125 5 189zM187 819l48 78l77 -52l-50 -77zM401 821l49 76
l76 -52l-51 -76z" />
    <glyph glyph-name="Zcaron" unicode="&#x17d;" horiz-adv-x="718" 
d="M652 221l23 6c-5 -29 -51 -291 -55 -342l-23 7c1 19 5 77 5 96c-12 7 -210 12 -302 12c-43 0 -184 -3 -273 -6c50 53 451 607 483 665c-68 2 -344 -15 -374 -43c-10 -26 -30 -99 -36 -116l-23 -3c22 96 29 256 32 299l23 -5c1 -27 2 -78 3 -93c21 -4 228 -9 253 -9
c21 0 224 2 286 5c-55 -69 -425 -577 -478 -658c124 -5 362 12 414 55c13 17 35 105 42 130zM482 917l18 -24c-21 -22 -107 -101 -126 -121c-39 31 -118 106 -137 121l19 24c8 -6 99 -59 120 -66c25 10 93 56 106 66z" />
    <glyph glyph-name="aacute" unicode="&#xe1;" horiz-adv-x="712" 
d="M422 -4l5 21c35 3 70 7 101 14c-18 52 -89 264 -105 293c-35 0 -194 -7 -231 -13c-6 -14 -60 -203 -70 -280c25 -7 58 -11 86 -14l4 -21c-31 2 -122 4 -151 4c-26 0 -93 -2 -116 -4l3 21c29 3 59 8 86 14c36 63 235 601 249 639c-22 6 -55 10 -79 13l-1 21
c30 -2 113 -4 130 -4c42 0 142 2 171 4l-3 -21c-26 -3 -53 -7 -76 -13c12 -44 67 -201 105 -306c28 -77 90 -245 136 -333c29 -6 58 -10 88 -14l3 -21c-12 2 -113 4 -166 4c-29 0 -142 -2 -169 -4zM416 354c-22 66 -85 244 -102 299h-2c-31 -89 -96 -262 -106 -295zM497 926
l38 -77c-22 2 -208 -73 -224 -81l-12 32c10 2 166 104 198 126z" />
    <glyph glyph-name="acircumflex" unicode="&#xe2;" horiz-adv-x="712" 
d="M422 -4l5 21c35 3 70 7 101 14c-18 52 -89 264 -105 293c-35 0 -194 -7 -231 -13c-6 -14 -60 -203 -70 -280c25 -7 58 -11 86 -14l4 -21c-31 2 -122 4 -151 4c-26 0 -93 -2 -116 -4l3 21c29 3 59 8 86 14c36 63 235 601 249 639c-22 6 -55 10 -79 13l-1 21
c30 -2 113 -4 130 -4c42 0 142 2 171 4l-3 -21c-26 -3 -53 -7 -76 -13c12 -44 67 -201 105 -306c28 -77 90 -245 136 -333c29 -6 58 -10 88 -14l3 -21c-12 2 -113 4 -166 4c-29 0 -142 -2 -169 -4zM416 354c-22 66 -85 244 -102 299h-2c-31 -89 -96 -262 -106 -295zM243 772
l-19 23c23 20 110 102 127 122c39 -35 118 -106 137 -121l-19 -24c-11 6 -99 55 -120 66c-25 -11 -93 -56 -106 -66z" />
    <glyph glyph-name="adieresis" unicode="&#xe4;" horiz-adv-x="712" 
d="M422 -4l5 21c35 3 70 7 101 14c-18 52 -89 264 -105 293c-35 0 -194 -7 -231 -13c-6 -14 -60 -203 -70 -280c25 -7 58 -11 86 -14l4 -21c-31 2 -122 4 -151 4c-26 0 -93 -2 -116 -4l3 21c29 3 59 8 86 14c36 63 235 601 249 639c-22 6 -55 10 -79 13l-1 21
c30 -2 113 -4 130 -4c42 0 142 2 171 4l-3 -21c-26 -3 -53 -7 -76 -13c12 -44 67 -201 105 -306c28 -77 90 -245 136 -333c29 -6 58 -10 88 -14l3 -21c-12 2 -113 4 -166 4c-29 0 -142 -2 -169 -4zM416 354c-22 66 -85 244 -102 299h-2c-31 -89 -96 -262 -106 -295zM187 819
l48 78l77 -52l-50 -77zM401 821l49 76l76 -52l-51 -76z" />
    <glyph glyph-name="agrave" unicode="&#xe0;" horiz-adv-x="712" 
d="M422 -4l5 21c35 3 70 7 101 14c-18 52 -89 264 -105 293c-35 0 -194 -7 -231 -13c-6 -14 -60 -203 -70 -280c25 -7 58 -11 86 -14l4 -21c-31 2 -122 4 -151 4c-26 0 -93 -2 -116 -4l3 21c29 3 59 8 86 14c36 63 235 601 249 639c-22 6 -55 10 -79 13l-1 21
c30 -2 113 -4 130 -4c42 0 142 2 171 4l-3 -21c-26 -3 -53 -7 -76 -13c12 -44 67 -201 105 -306c28 -77 90 -245 136 -333c29 -6 58 -10 88 -14l3 -21c-12 2 -113 4 -166 4c-29 0 -142 -2 -169 -4zM416 354c-22 66 -85 244 -102 299h-2c-31 -89 -96 -262 -106 -295zM178 849
l39 77c32 -22 188 -124 198 -126l-12 -32c-17 8 -203 83 -225 81z" />
    <glyph glyph-name="aring" unicode="&#xe5;" horiz-adv-x="712" 
d="M422 -4l5 21c35 3 70 7 101 14c-18 52 -89 264 -105 293c-35 0 -194 -7 -231 -13c-6 -14 -60 -203 -70 -280c25 -7 58 -11 86 -14l4 -21c-31 2 -122 4 -151 4c-26 0 -93 -2 -116 -4l3 21c29 3 59 8 86 14c36 63 235 601 249 639c-22 6 -55 10 -79 13l-1 21
c30 -2 113 -4 130 -4c42 0 142 2 171 4l-3 -21c-26 -3 -53 -7 -76 -13c12 -44 67 -201 105 -306c28 -77 90 -245 136 -333c29 -6 58 -10 88 -14l3 -21c-12 2 -113 4 -166 4c-29 0 -142 -2 -169 -4zM416 354c-22 66 -85 244 -102 299h-2c-31 -89 -96 -262 -106 -295zM342 773
c-56 0 -101 23 -101 65c0 50 66 89 121 89c77 0 110 -28 110 -64c0 -37 -47 -90 -130 -90zM297 855c0 -39 35 -62 63 -62s53 21 53 53c0 28 -21 61 -60 61c-25 0 -56 -21 -56 -52z" />
    <glyph glyph-name="atilde" unicode="&#xe3;" horiz-adv-x="712" 
d="M422 -4l5 21c35 3 70 7 101 14c-18 52 -89 264 -105 293c-35 0 -194 -7 -231 -13c-6 -14 -60 -203 -70 -280c25 -7 58 -11 86 -14l4 -21c-31 2 -122 4 -151 4c-26 0 -93 -2 -116 -4l3 21c29 3 59 8 86 14c36 63 235 601 249 639c-22 6 -55 10 -79 13l-1 21
c30 -2 113 -4 130 -4c42 0 142 2 171 4l-3 -21c-26 -3 -53 -7 -76 -13c12 -44 67 -201 105 -306c28 -77 90 -245 136 -333c29 -6 58 -10 88 -14l3 -21c-12 2 -113 4 -166 4c-29 0 -142 -2 -169 -4zM416 354c-22 66 -85 244 -102 299h-2c-31 -89 -96 -262 -106 -295zM488 872
l28 -6c-10 -29 -45 -85 -78 -85c-21 0 -50 11 -76 22c-30 12 -61 23 -78 23c-18 0 -40 -4 -59 -36l-28 6c9 26 47 92 77 92c21 0 43 -11 71 -22s60 -25 89 -25c13 0 35 -2 54 31z" />
    <glyph glyph-name="ccedilla" unicode="&#xe7;" horiz-adv-x="809" 
d="M456 -15l-51 -61c52 -15 89 -40 89 -81c0 -76 -112 -108 -188 -104l9 32c68 -2 101 27 101 60c0 31 -23 57 -78 72l70 86c-45 5 -100 16 -146 39c-130 64 -207 178 -207 306c0 138 70 240 158 299c104 70 197 83 298 83c88 0 181 -18 209 -26c6 13 18 77 21 89l23 5
c-15 -110 -21 -214 -22 -309l-23 7c0 19 -3 66 -6 83c-19 44 -112 116 -241 116c-182 0 -297 -132 -297 -288c0 -195 161 -360 372 -360c76 0 166 12 237 54l-14 -43c-23 -19 -124 -60 -281 -60c-8 0 -19 0 -33 1z" />
    <glyph glyph-name="eacute" unicode="&#xe9;" horiz-adv-x="637" 
d="M163 343v46c0 90 -3 249 -7 280c-19 4 -80 11 -104 14l-4 21c24 -1 57 -2 90 -3c33 0 66 -1 88 -1c32 0 267 0 294 7c3 12 6 29 8 47l23 4c-5 -21 -18 -176 -20 -207l-22 7c0 7 1 52 0 72c-18 29 -172 42 -225 42c-3 -14 -7 -207 -7 -266v-20c86 0 183 7 207 16
c5 15 8 29 10 43l21 2c-3 -18 -21 -155 -26 -187l-19 8c1 21 2 47 2 67c-31 16 -109 22 -195 22v-20c0 -61 4 -279 7 -308c100 0 194 8 240 34c11 35 16 66 22 88l23 6c-7 -29 -29 -181 -33 -231l-21 4c0 27 0 45 -1 61c-29 5 -251 9 -314 9c-34 0 -113 -2 -152 -4l5 21
c16 1 76 7 103 14c4 18 7 202 7 312zM459 926l38 -77c-22 2 -208 -73 -224 -81l-12 32c10 2 166 104 198 126z" />
    <glyph glyph-name="ecircumflex" unicode="&#xea;" horiz-adv-x="637" 
d="M163 343v46c0 90 -3 249 -7 280c-19 4 -80 11 -104 14l-4 21c24 -1 57 -2 90 -3c33 0 66 -1 88 -1c32 0 267 0 294 7c3 12 6 29 8 47l23 4c-5 -21 -18 -176 -20 -207l-22 7c0 7 1 52 0 72c-18 29 -172 42 -225 42c-3 -14 -7 -207 -7 -266v-20c86 0 183 7 207 16
c5 15 8 29 10 43l21 2c-3 -18 -21 -155 -26 -187l-19 8c1 21 2 47 2 67c-31 16 -109 22 -195 22v-20c0 -61 4 -279 7 -308c100 0 194 8 240 34c11 35 16 66 22 88l23 6c-7 -29 -29 -181 -33 -231l-21 4c0 27 0 45 -1 61c-29 5 -251 9 -314 9c-34 0 -113 -2 -152 -4l5 21
c16 1 76 7 103 14c4 18 7 202 7 312zM205 772l-19 23c23 20 110 102 127 122c39 -35 118 -106 137 -121l-19 -24c-11 6 -99 55 -120 66c-25 -11 -93 -56 -106 -66z" />
    <glyph glyph-name="edieresis" unicode="&#xeb;" horiz-adv-x="637" 
d="M163 343v46c0 90 -3 249 -7 280c-19 4 -80 11 -104 14l-4 21c24 -1 57 -2 90 -3c33 0 66 -1 88 -1c32 0 267 0 294 7c3 12 6 29 8 47l23 4c-5 -21 -18 -176 -20 -207l-22 7c0 7 1 52 0 72c-18 29 -172 42 -225 42c-3 -14 -7 -207 -7 -266v-20c86 0 183 7 207 16
c5 15 8 29 10 43l21 2c-3 -18 -21 -155 -26 -187l-19 8c1 21 2 47 2 67c-31 16 -109 22 -195 22v-20c0 -61 4 -279 7 -308c100 0 194 8 240 34c11 35 16 66 22 88l23 6c-7 -29 -29 -181 -33 -231l-21 4c0 27 0 45 -1 61c-29 5 -251 9 -314 9c-34 0 -113 -2 -152 -4l5 21
c16 1 76 7 103 14c4 18 7 202 7 312zM149 819l48 78l77 -52l-50 -77zM363 821l49 76l76 -52l-51 -76z" />
    <glyph glyph-name="egrave" unicode="&#xe8;" horiz-adv-x="637" 
d="M163 343v46c0 90 -3 249 -7 280c-19 4 -80 11 -104 14l-4 21c24 -1 57 -2 90 -3c33 0 66 -1 88 -1c32 0 267 0 294 7c3 12 6 29 8 47l23 4c-5 -21 -18 -176 -20 -207l-22 7c0 7 1 52 0 72c-18 29 -172 42 -225 42c-3 -14 -7 -207 -7 -266v-20c86 0 183 7 207 16
c5 15 8 29 10 43l21 2c-3 -18 -21 -155 -26 -187l-19 8c1 21 2 47 2 67c-31 16 -109 22 -195 22v-20c0 -61 4 -279 7 -308c100 0 194 8 240 34c11 35 16 66 22 88l23 6c-7 -29 -29 -181 -33 -231l-21 4c0 27 0 45 -1 61c-29 5 -251 9 -314 9c-34 0 -113 -2 -152 -4l5 21
c16 1 76 7 103 14c4 18 7 202 7 312zM170 849l39 77c32 -22 188 -124 198 -126l-12 -32c-17 8 -203 83 -225 81z" />
    <glyph glyph-name="iacute" unicode="&#xed;" horiz-adv-x="440" 
d="M277 410v-62c0 -130 1 -297 5 -317c25 -6 85 -12 105 -14l5 -21c-22 2 -126 4 -188 4c-34 0 -126 -2 -156 -4l4 21c17 1 85 10 106 14c4 42 5 227 5 325v59c0 33 -1 220 -5 254c-20 4 -86 12 -105 14l-5 21c19 -2 111 -4 190 -4c51 0 137 2 154 4l-5 -21
c-20 -2 -69 -10 -105 -14c-4 -20 -5 -136 -5 -259zM361 926l38 -77c-22 2 -208 -73 -224 -81l-12 32c10 2 166 104 198 126z" />
    <glyph glyph-name="icircumflex" unicode="&#xee;" horiz-adv-x="440" 
d="M277 410v-62c0 -130 1 -297 5 -317c25 -6 85 -12 105 -14l5 -21c-22 2 -126 4 -188 4c-34 0 -126 -2 -156 -4l4 21c17 1 85 10 106 14c4 42 5 227 5 325v59c0 33 -1 220 -5 254c-20 4 -86 12 -105 14l-5 21c19 -2 111 -4 190 -4c51 0 137 2 154 4l-5 -21
c-20 -2 -69 -10 -105 -14c-4 -20 -5 -136 -5 -259zM107 772l-19 23c23 20 110 102 127 122c39 -35 118 -106 137 -121l-19 -24c-11 6 -99 55 -120 66c-25 -11 -93 -56 -106 -66z" />
    <glyph glyph-name="idieresis" unicode="&#xef;" horiz-adv-x="440" 
d="M277 410v-62c0 -130 1 -297 5 -317c25 -6 85 -12 105 -14l5 -21c-22 2 -126 4 -188 4c-34 0 -126 -2 -156 -4l4 21c17 1 85 10 106 14c4 42 5 227 5 325v59c0 33 -1 220 -5 254c-20 4 -86 12 -105 14l-5 21c19 -2 111 -4 190 -4c51 0 137 2 154 4l-5 -21
c-20 -2 -69 -10 -105 -14c-4 -20 -5 -136 -5 -259zM51 819l48 78l77 -52l-50 -77zM265 821l49 76l76 -52l-51 -76z" />
    <glyph glyph-name="igrave" unicode="&#xec;" horiz-adv-x="440" 
d="M277 410v-62c0 -130 1 -297 5 -317c25 -6 85 -12 105 -14l5 -21c-22 2 -126 4 -188 4c-34 0 -126 -2 -156 -4l4 21c17 1 85 10 106 14c4 42 5 227 5 325v59c0 33 -1 220 -5 254c-20 4 -86 12 -105 14l-5 21c19 -2 111 -4 190 -4c51 0 137 2 154 4l-5 -21
c-20 -2 -69 -10 -105 -14c-4 -20 -5 -136 -5 -259zM42 849l39 77c32 -22 188 -124 198 -126l-12 -32c-17 8 -203 83 -225 81z" />
    <glyph glyph-name="ntilde" unicode="&#xf1;" horiz-adv-x="908" 
d="M44 679l-4 21c56 2 150 3 228 7c22 -34 223 -286 240 -304c26 -28 185 -221 217 -248c0 111 -1 462 -21 514c-20 4 -73 12 -101 14l-5 21c19 -2 127 -4 149 -4s105 2 126 4l-4 -21c-13 -2 -49 -10 -76 -14c-12 -39 -17 -180 -19 -212c-3 -47 -11 -467 -17 -507
c-30 28 -307 351 -330 377c-14 15 -204 247 -237 285c-3 -20 9 -545 22 -581c15 -5 90 -12 109 -14l3 -21c-18 2 -122 4 -148 4c-29 0 -107 -2 -136 -4l3 21c28 4 60 7 83 14c17 42 28 603 28 636c-23 5 -72 10 -110 12zM616 872l28 -6c-10 -29 -45 -85 -78 -85
c-21 0 -50 11 -76 22c-30 12 -61 23 -78 23c-18 0 -40 -4 -59 -36l-28 6c9 26 47 92 77 92c21 0 43 -11 71 -22s60 -25 89 -25c13 0 35 -2 54 31z" />
    <glyph glyph-name="oacute" unicode="&#xf3;" horiz-adv-x="947" 
d="M460 -16c-101 0 -216 17 -309 112c-73 75 -96 148 -96 242c0 198 163 378 439 378c106 0 190 -17 277 -81c79 -58 121 -155 121 -248c0 -245 -186 -403 -432 -403zM509 25c143 0 261 129 261 289c0 212 -147 364 -313 364c-137 0 -287 -92 -287 -298
c0 -179 144 -355 339 -355zM614 926l38 -77c-22 2 -208 -73 -224 -81l-12 32c10 2 166 104 198 126z" />
    <glyph glyph-name="ocircumflex" unicode="&#xf4;" horiz-adv-x="947" 
d="M460 -16c-101 0 -216 17 -309 112c-73 75 -96 148 -96 242c0 198 163 378 439 378c106 0 190 -17 277 -81c79 -58 121 -155 121 -248c0 -245 -186 -403 -432 -403zM509 25c143 0 261 129 261 289c0 212 -147 364 -313 364c-137 0 -287 -92 -287 -298
c0 -179 144 -355 339 -355zM370 772l-19 23c23 20 110 102 127 122c39 -35 118 -106 137 -121l-19 -24c-11 6 -99 55 -120 66c-25 -11 -93 -56 -106 -66z" />
    <glyph glyph-name="odieresis" unicode="&#xf6;" horiz-adv-x="947" 
d="M460 -16c-101 0 -216 17 -309 112c-73 75 -96 148 -96 242c0 198 163 378 439 378c106 0 190 -17 277 -81c79 -58 121 -155 121 -248c0 -245 -186 -403 -432 -403zM509 25c143 0 261 129 261 289c0 212 -147 364 -313 364c-137 0 -287 -92 -287 -298
c0 -179 144 -355 339 -355zM304 819l48 78l77 -52l-50 -77zM518 821l49 76l76 -52l-51 -76z" />
    <glyph glyph-name="ograve" unicode="&#xf2;" horiz-adv-x="947" 
d="M460 -16c-101 0 -216 17 -309 112c-73 75 -96 148 -96 242c0 198 163 378 439 378c106 0 190 -17 277 -81c79 -58 121 -155 121 -248c0 -245 -186 -403 -432 -403zM509 25c143 0 261 129 261 289c0 212 -147 364 -313 364c-137 0 -287 -92 -287 -298
c0 -179 144 -355 339 -355zM295 849l39 77c32 -22 188 -124 198 -126l-12 -32c-17 8 -203 83 -225 81z" />
    <glyph glyph-name="otilde" unicode="&#xf5;" horiz-adv-x="947" 
d="M460 -16c-101 0 -216 17 -309 112c-73 75 -96 148 -96 242c0 198 163 378 439 378c106 0 190 -17 277 -81c79 -58 121 -155 121 -248c0 -245 -186 -403 -432 -403zM509 25c143 0 261 129 261 289c0 212 -147 364 -313 364c-137 0 -287 -92 -287 -298
c0 -179 144 -355 339 -355zM605 872l28 -6c-10 -29 -45 -85 -78 -85c-21 0 -50 11 -76 22c-30 12 -61 23 -78 23c-18 0 -40 -4 -59 -36l-28 6c9 26 47 92 77 92c21 0 43 -11 71 -22s60 -25 89 -25c13 0 35 -2 54 31z" />
    <glyph glyph-name="scaron" unicode="&#x161;" horiz-adv-x="552" 
d="M86 -95l-23 -6c2 14 16 125 16 164c0 26 6 134 3 158l23 -6c-1 -13 4 -70 7 -88c27 -64 86 -109 155 -109c79 0 142 52 142 126c0 81 -63 121 -128 163c-98 64 -176 120 -176 233c0 78 58 176 206 176c59 0 111 -12 135 -18c7 24 12 54 18 81l23 3
c-14 -99 -24 -192 -24 -274l-23 10c0 34 -2 58 -4 76c-11 36 -63 90 -133 90c-86 0 -122 -55 -122 -100c0 -65 68 -100 144 -148c83 -52 167 -108 167 -234c0 -139 -110 -218 -246 -218c-48 0 -110 10 -138 25c-5 -19 -15 -67 -22 -104zM409 917l18 -24
c-21 -22 -107 -101 -126 -121c-39 31 -118 106 -137 121l19 24c8 -6 99 -59 120 -66c25 10 93 56 106 66z" />
    <glyph glyph-name="uacute" unicode="&#xfa;" horiz-adv-x="857" 
d="M131 287v156c0 90 -2 198 -5 226c-21 5 -52 10 -79 14l-3 21c28 -2 92 -4 169 -4c46 0 123 2 148 4l-5 -21c-27 -3 -72 -8 -104 -14c-3 -17 -5 -144 -5 -230v-133c0 -212 90 -284 198 -284c66 0 110 16 144 48c54 51 67 139 67 259v92c0 32 -1 215 -5 248
c-23 4 -83 12 -109 14l-7 21c25 -2 100 -4 162 -4c52 0 105 2 122 4l-6 -21c-17 -4 -44 -8 -70 -14c-3 -15 -5 -140 -5 -167v-48c0 -39 2 -87 2 -123c0 -113 -21 -209 -98 -277c-46 -41 -110 -70 -209 -70c-207 0 -302 128 -302 303zM599 926l38 -77
c-22 2 -208 -73 -224 -81l-12 32c10 2 166 104 198 126z" />
    <glyph glyph-name="ucircumflex" unicode="&#xfb;" horiz-adv-x="857" 
d="M131 287v156c0 90 -2 198 -5 226c-21 5 -52 10 -79 14l-3 21c28 -2 92 -4 169 -4c46 0 123 2 148 4l-5 -21c-27 -3 -72 -8 -104 -14c-3 -17 -5 -144 -5 -230v-133c0 -212 90 -284 198 -284c66 0 110 16 144 48c54 51 67 139 67 259v92c0 32 -1 215 -5 248
c-23 4 -83 12 -109 14l-7 21c25 -2 100 -4 162 -4c52 0 105 2 122 4l-6 -21c-17 -4 -44 -8 -70 -14c-3 -15 -5 -140 -5 -167v-48c0 -39 2 -87 2 -123c0 -113 -21 -209 -98 -277c-46 -41 -110 -70 -209 -70c-207 0 -302 128 -302 303zM345 772l-19 23c23 20 110 102 127 122
c39 -35 118 -106 137 -121l-19 -24c-11 6 -99 55 -120 66c-25 -11 -93 -56 -106 -66z" />
    <glyph glyph-name="udieresis" unicode="&#xfc;" horiz-adv-x="857" 
d="M131 287v156c0 90 -2 198 -5 226c-21 5 -52 10 -79 14l-3 21c28 -2 92 -4 169 -4c46 0 123 2 148 4l-5 -21c-27 -3 -72 -8 -104 -14c-3 -17 -5 -144 -5 -230v-133c0 -212 90 -284 198 -284c66 0 110 16 144 48c54 51 67 139 67 259v92c0 32 -1 215 -5 248
c-23 4 -83 12 -109 14l-7 21c25 -2 100 -4 162 -4c52 0 105 2 122 4l-6 -21c-17 -4 -44 -8 -70 -14c-3 -15 -5 -140 -5 -167v-48c0 -39 2 -87 2 -123c0 -113 -21 -209 -98 -277c-46 -41 -110 -70 -209 -70c-207 0 -302 128 -302 303zM279 819l48 78l77 -52l-50 -77zM493 821
l49 76l76 -52l-51 -76z" />
    <glyph glyph-name="ugrave" unicode="&#xf9;" horiz-adv-x="857" 
d="M131 287v156c0 90 -2 198 -5 226c-21 5 -52 10 -79 14l-3 21c28 -2 92 -4 169 -4c46 0 123 2 148 4l-5 -21c-27 -3 -72 -8 -104 -14c-3 -17 -5 -144 -5 -230v-133c0 -212 90 -284 198 -284c66 0 110 16 144 48c54 51 67 139 67 259v92c0 32 -1 215 -5 248
c-23 4 -83 12 -109 14l-7 21c25 -2 100 -4 162 -4c52 0 105 2 122 4l-6 -21c-17 -4 -44 -8 -70 -14c-3 -15 -5 -140 -5 -167v-48c0 -39 2 -87 2 -123c0 -113 -21 -209 -98 -277c-46 -41 -110 -70 -209 -70c-207 0 -302 128 -302 303zM250 849l39 77
c32 -22 188 -124 198 -126l-12 -32c-17 8 -203 83 -225 81z" />
    <glyph glyph-name="yacute" unicode="&#xfd;" horiz-adv-x="654" 
d="M286 220v32c0 14 0 40 -3 66c-8 26 -198 308 -244 351c-13 6 -50 10 -70 14l-4 21c17 -2 83 -4 174 -4c57 0 124 2 138 4l-5 -21c-18 -4 -63 -9 -86 -14c59 -104 161 -250 192 -303c16 29 170 262 173 303c-21 5 -65 12 -78 14l-3 21c15 -2 71 -4 126 -4c46 0 98 2 121 4
l-3 -21c-15 -3 -47 -8 -68 -14c-22 -7 -228 -299 -242 -343c-3 -17 -4 -47 -4 -71v-38c0 -27 1 -161 5 -186c12 -3 78 -11 97 -14l2 -21c-21 2 -111 4 -179 4c-36 0 -109 -2 -137 -4l5 21c19 2 65 8 88 14c4 15 5 125 5 189zM517 926l38 -77c-22 2 -208 -73 -224 -81l-12 32
c10 2 166 104 198 126z" />
    <glyph glyph-name="ydieresis" unicode="&#xff;" horiz-adv-x="654" 
d="M286 220v32c0 14 0 40 -3 66c-8 26 -198 308 -244 351c-13 6 -50 10 -70 14l-4 21c17 -2 83 -4 174 -4c57 0 124 2 138 4l-5 -21c-18 -4 -63 -9 -86 -14c59 -104 161 -250 192 -303c16 29 170 262 173 303c-21 5 -65 12 -78 14l-3 21c15 -2 71 -4 126 -4c46 0 98 2 121 4
l-3 -21c-15 -3 -47 -8 -68 -14c-22 -7 -228 -299 -242 -343c-3 -17 -4 -47 -4 -71v-38c0 -27 1 -161 5 -186c12 -3 78 -11 97 -14l2 -21c-21 2 -111 4 -179 4c-36 0 -109 -2 -137 -4l5 21c19 2 65 8 88 14c4 15 5 125 5 189zM187 819l48 78l77 -52l-50 -77zM401 821l49 76
l76 -52l-51 -76z" />
    <glyph glyph-name="zcaron" unicode="&#x17e;" horiz-adv-x="718" 
d="M652 221l23 6c-5 -29 -51 -291 -55 -342l-23 7c1 19 5 77 5 96c-12 7 -210 12 -302 12c-43 0 -184 -3 -273 -6c50 53 451 607 483 665c-68 2 -344 -15 -374 -43c-10 -26 -30 -99 -36 -116l-23 -3c22 96 29 256 32 299l23 -5c1 -27 2 -78 3 -93c21 -4 228 -9 253 -9
c21 0 224 2 286 5c-55 -69 -425 -577 -478 -658c124 -5 362 12 414 55c13 17 35 105 42 130zM482 917l18 -24c-21 -22 -107 -101 -126 -121c-39 31 -118 106 -137 121l19 24c8 -6 99 -59 120 -66c25 10 93 56 106 66z" />
    <glyph glyph-name="Delta" unicode="&#x2206;" horiz-adv-x="687" 
d="M15 -4l15 30c52 105 306 686 316 718c47 -111 269 -609 319 -718l14 -30c-154 3 -241 4 -399 4c-111 0 -154 0 -265 -4zM318 565c-36 -87 -72 -171 -106 -261c-46 -120 -66 -168 -93 -240c139 -10 286 -12 401 2c-43 121 -154 395 -202 499z" />
    <glyph glyph-name="Omega" unicode="&#x2126;" horiz-adv-x="941" 
d="M753 314c0 212 -130 364 -296 364c-137 0 -270 -96 -270 -302c0 -155 102 -334 258 -376c-63 0 -378 -2 -407 -7c-4 50 -20 135 -27 164l25 -6c6 -22 11 -51 22 -86c46 -26 137 -30 237 -30c-109 49 -223 184 -223 320c0 194 150 361 416 361c189 0 387 -114 387 -329
c0 -141 -78 -289 -219 -356c94 1 182 11 226 34c11 35 17 64 23 86l25 6c-7 -29 -22 -114 -26 -164c-29 5 -312 7 -375 7c125 24 224 169 224 314z" />
    <glyph glyph-name="pi" unicode="&#x3c0;" horiz-adv-x="580" 
d="M529 350c-34 3 -48 7 -92 9c-3 -108 -4 -169 -4 -234c0 -61 17 -79 48 -79c25 0 46 12 71 33l-3 -38c-42 -37 -77 -53 -113 -53c-48 0 -102 23 -102 120c0 85 5 178 10 252h-46c-54 0 -78 -1 -104 -3v-21c0 -140 -15 -209 -51 -331l-95 -16c61 100 102 266 104 366
c-55 -10 -92 -19 -142 -46l-13 21c60 53 120 100 207 100c64 0 116 -1 180 -2c78 -1 96 11 122 17c8 26 12 43 16 54l27 3c-13 -71 -13 -100 -20 -152z" />
    <glyph glyph-name="Euro" unicode="&#x20ac;" horiz-adv-x="578" 
d="M9 309h63c0 8 -1 17 -1 25c0 13 1 27 2 40c-16 -2 -49 -4 -65 -6l24 55h47c30 175 151 293 320 293c63 0 117 -22 137 -30c4 13 11 51 13 63l25 5c-11 -110 -11 -173 -12 -268l-27 7c0 19 -2 61 -4 78c-14 44 -54 110 -147 110c-122 0 -205 -116 -215 -258h346l-22 -45
c-80 7 -149 6 -229 5c-33 0 -67 -1 -96 -3c1 -24 3 -48 7 -71h305l-22 -45c-80 7 -147 6 -227 5c-16 0 -31 0 -46 -1c38 -142 137 -239 244 -239c55 0 110 33 158 70l-10 -41c-56 -46 -122 -74 -194 -74c-157 0 -280 109 -307 278c-28 -2 -65 -5 -92 -8z" />
    <glyph glyph-name="estimated" unicode="&#x212e;" horiz-adv-x="879" 
d="M845 339h-657c-3 0 -5 -1 -5 -4v-199c0 -9 3 -16 9 -22c63 -66 151 -108 248 -108c105 0 197 48 261 121h59c-72 -85 -190 -143 -321 -143c-224 0 -405 164 -405 365c0 202 181 365 405 365c225 0 406 -163 406 -365v-10zM696 365v200c0 9 -3 18 -10 24
c-64 63 -150 103 -246 103s-183 -41 -247 -106c-6 -7 -10 -15 -10 -25v-196c0 -2 2 -6 5 -6h504c3 0 4 4 4 6z" />
    <glyph glyph-name="partialdiff" unicode="&#x2202;" horiz-adv-x="590" 
d="M453 416c0 171 -84 322 -204 322c-50 0 -127 -33 -164 -62l-22 36c42 37 126 71 181 71c226 0 306 -217 306 -407c0 -186 -105 -392 -297 -392c-131 0 -215 80 -215 202c0 151 121 231 255 231c77 0 131 -40 154 -73c3 28 6 51 6 72zM315 369c-128 0 -170 -102 -170 -215
c0 -78 41 -132 111 -132c127 0 169 181 182 268c-23 41 -79 79 -123 79z" />
    <glyph glyph-name="product" unicode="&#x220f;" horiz-adv-x="902" 
d="M619 660c0 0 -318 -9 -334 -13c-4 -27 -8 -123 -8 -209v-226c0 -102 4 -230 8 -267c27 -6 71 -13 91 -14l5 -21c-21 2 -114 4 -157 4c-52 0 -146 -2 -176 -4l6 21c23 1 85 10 104 14c4 47 5 215 5 291v180c0 32 -1 220 -5 253c-18 4 -80 12 -105 14l-5 21
c17 -2 112 -4 176 -4l223 -2l240 2c65 0 149 2 167 4l-6 -21c-20 -2 -73 -10 -102 -14c-5 -20 -7 -226 -7 -253v-156c0 -116 2 -281 9 -315c20 -4 81 -13 101 -14l5 -21c-19 2 -121 4 -168 4c-43 0 -131 -2 -165 -4l5 21c15 1 75 10 93 14c6 34 6 161 6 267v226
c0 78 -6 222 -6 222z" />
    <glyph glyph-name="summation" unicode="&#x2211;" horiz-adv-x="651" 
d="M556 21c13 17 35 87 42 112l23 6c-5 -29 -49 -279 -53 -330l-23 7c1 19 3 67 3 86c-34 5 -190 12 -282 12c-43 0 -184 -3 -273 -6c28 29 179 205 311 369c-55 79 -221 348 -276 417c62 -3 265 -5 286 -5c25 0 178 6 246 13c5 14 15 52 22 78l26 5
c-8 -42 -33 -180 -35 -278l-21 4c-2 18 -9 84 -13 112c-40 16 -285 36 -353 36c32 -58 167 -281 213 -340c-124 -155 -241 -292 -286 -342c66 -1 117 0 178 3c145 7 223 16 265 41z" />
    <glyph glyph-name="uni2219" unicode="&#x2219;" horiz-adv-x="320" 
d="M221 326l-118 -22l-3 107l116 22z" />
    <glyph glyph-name="radical" unicode="&#x221a;" horiz-adv-x="575" 
d="M571 856c-25 -118 -75 -358 -101 -479l-112 -513l-26 -6c-28 67 -93 204 -134 308c-24 59 -56 123 -98 210l-76 -30l-12 27c63 27 126 60 170 85c30 -79 73 -196 91 -242c16 -41 57 -145 79 -205h3l72 366c24 123 66 341 91 469z" />
    <glyph glyph-name="infinity" unicode="&#x221e;" horiz-adv-x="810" 
d="M758 345c0 -94 -67 -168 -163 -168c-61 0 -123 39 -190 124c-52 -64 -110 -124 -194 -124c-85 0 -160 66 -160 163c0 98 73 166 168 166c79 0 141 -58 192 -125c46 57 102 125 191 125c90 0 156 -64 156 -161zM218 227c65 0 120 68 160 111c-44 55 -93 119 -164 119
c-60 0 -105 -55 -105 -118c0 -57 47 -112 109 -112zM595 457c-66 0 -119 -71 -160 -114c67 -77 112 -116 163 -116c62 0 102 62 102 113c0 68 -47 117 -105 117z" />
    <glyph glyph-name="integral" unicode="&#x222b;" horiz-adv-x="400" 
d="M233 610l18 -380c16 -332 -60 -423 -158 -423c-40 0 -59 9 -73 13c-4 -19 -10 -42 -16 -69l-23 -5c12 74 16 152 15 238l23 -6c0 -33 6 -69 8 -89c17 -30 39 -49 72 -49c60 0 74 71 69 173l-20 393c-17 335 81 412 156 412c40 0 55 -9 69 -14c5 13 14 48 19 69l23 2
c-17 -81 -23 -151 -28 -237l-24 7c2 33 -2 58 -3 78c-11 42 -28 62 -61 62c-40 0 -72 -42 -66 -175z" />
    <glyph glyph-name="approxequal" unicode="&#x2248;" 
d="M527 455c-26 -32 -69 -91 -114 -90c-27 0 -94 24 -119 34c-18 6 -88 34 -106 35c-24 0 -70 -39 -86 -54l-22 18c24 31 71 89 114 90c26 0 97 -29 121 -38c25 -10 79 -32 106 -31c29 1 65 36 85 54zM527 278c-26 -31 -69 -90 -114 -90c-27 1 -94 25 -119 34
c-18 7 -88 35 -106 35c-24 1 -70 -39 -86 -54l-22 18c24 31 71 90 114 90c26 1 97 -28 121 -38c25 -9 79 -31 106 -31c29 1 65 36 85 54z" />
    <glyph glyph-name="notequal" unicode="&#x2260;" 
d="M220 112l-78 -8c13 22 42 76 74 134c-51 -2 -101 -6 -141 -11l8 63h161c20 37 40 74 55 103h-1c-77 -1 -162 -7 -223 -14l8 63h215h27c28 54 46 94 55 123l81 5c-23 -27 -46 -71 -76 -128h150l-8 -53c-54 5 -111 5 -167 5l-6 -10c-16 -31 -32 -63 -48 -94h229l-8 -53
c-74 6 -154 6 -229 4h-17c-24 -48 -45 -92 -61 -129z" />
    <glyph glyph-name="lessequal" unicode="&#x2264;" 
d="M512 144c-129 68 -344 174 -435 221v2c129 66 286 149 441 230l13 -53c-135 -64 -265 -129 -361 -175c103 -46 242 -103 368 -155zM527 50c-74 6 -154 5 -229 4c-77 -2 -162 -7 -223 -14l8 63h215h237z" />
    <glyph glyph-name="greaterequal" unicode="&#x2265;" 
d="M104 597c128 -69 341 -171 437 -221v-1c-131 -69 -286 -150 -443 -231l-13 53c134 63 265 128 361 175c-106 45 -242 103 -368 155zM527 50c-74 6 -154 5 -229 4c-77 -2 -162 -7 -223 -14l8 63h215h237z" />
    <glyph glyph-name="lozenge" unicode="&#x25ca;" horiz-adv-x="582" 
d="M395 191c28 52 49 80 82 136c-34 55 -67 100 -104 165c-28 49 -66 114 -96 171c-35 -68 -60 -105 -91 -162c-28 -52 -45 -77 -78 -133c34 -55 63 -103 100 -168c27 -48 67 -118 97 -174c35 67 59 108 90 165zM322 748c-2 -4 3 -21 6 -26c24 -42 82 -141 102 -178
c32 -59 97 -157 126 -200c-41 -57 -107 -157 -130 -197c-24 -43 -70 -122 -99 -183c-4 -9 -4 -6 -6 -13c-11 -2 -49 -5 -61 -7c2 4 -4 21 -7 26c-24 42 -82 141 -102 178c-32 59 -96 157 -125 200c41 57 106 157 129 197c24 43 70 122 99 183c4 9 4 6 6 13c15 1 48 2 62 7z
" />
    <glyph glyph-name="uni02C9" unicode="&#x2c9;" horiz-adv-x="917" 
d="M338 865h252l-6 -39c-17 0 -239 -15 -256 -26z" />
    <glyph glyph-name="uni00AD" unicode="&#xad;" horiz-adv-x="450" 
d="M78 400h302l-13 -48c-49 0 -224 -17 -297 -33z" />
    <glyph glyph-name="uni03A9" unicode="&#x3a9;" horiz-adv-x="941" 
d="M753 314c0 212 -130 364 -296 364c-137 0 -270 -96 -270 -302c0 -155 102 -334 258 -376c-63 0 -378 -2 -407 -7c-4 50 -20 135 -27 164l25 -6c6 -22 11 -51 22 -86c46 -26 137 -30 237 -30c-109 49 -223 184 -223 320c0 194 150 361 416 361c189 0 387 -114 387 -329
c0 -141 -78 -289 -219 -356c94 1 182 11 226 34c11 35 17 64 23 86l25 6c-7 -29 -22 -114 -26 -164c-29 5 -312 7 -375 7c125 24 224 169 224 314z" />
    <glyph glyph-name="uni00A0" unicode="&#xa0;" horiz-adv-x="250" 
 />
    <glyph glyph-name="afii61289" unicode="&#x2113;" horiz-adv-x="420" 
d="M384 113l34 1c-24 -68 -87 -127 -171 -127c-99 0 -163 77 -163 198v60l-68 -47l-14 23l81 67v169c0 113 40 317 178 342c61 -13 94 -81 94 -154c0 -132 -95 -267 -192 -351v-70c0 -101 46 -188 116 -188c60 0 93 51 105 77zM163 513v-167c76 80 129 190 129 303
c0 43 -17 89 -40 106c-36 -10 -89 -79 -89 -242z" />
    <glyph glyph-name="uni03BC" unicode="&#x3bc;" horiz-adv-x="603" 
d="M164 43c1 -91 21 -234 40 -297l-2 -6s-68 10 -100 21c-1 23 3 71 3 225v328c0 36 -1 77 -5 112l92 15c4 -24 5 -79 5 -113v-161c0 -73 48 -121 92 -121c47 0 77 30 97 57v324l91 14v-332c0 -62 34 -77 88 -47l10 -27c-28 -22 -68 -47 -99 -47c-51 0 -70 44 -82 76
c-29 -39 -62 -76 -120 -76c-36 0 -85 23 -110 55z" />
    <glyph glyph-name="uni2215" unicode="&#x2215;" horiz-adv-x="324" 
d="M394 740l-425 -822l-39 24l423 821z" />
    <glyph glyph-name="a.superior" horiz-adv-x="460" 
d="M263 387l3 19c17 2 35 4 47 7c-6 14 -37 89 -44 101c-21 2 -95 -7 -115 -8c-4 -8 -25 -68 -29 -93c11 -3 22 -5 38 -7l2 -19c-22 1 -63 3 -77 3c-18 0 -52 -1 -65 -3l1 19c15 2 27 4 40 7c20 19 125 257 123 265c-7 2 -21 4 -33 5v20c15 -1 56 -3 72 -3c13 0 63 2 90 3
l-2 -20c-13 -1 -26 -3 -37 -5c4 -11 33 -80 53 -127c15 -34 48 -108 67 -138c14 -3 29 -5 44 -7l1 -19c-13 1 -68 3 -94 3c-15 0 -71 -2 -85 -3zM163 536h100c-16 40 -41 104 -52 130c-14 -35 -37 -103 -48 -130z" />
    <glyph glyph-name="o.superior" horiz-adv-x="490" 
d="M239 382c-47 0 -98 8 -140 50c-36 36 -44 74 -44 110c0 89 74 174 199 174c49 0 88 -7 127 -39c35 -28 54 -71 54 -111c0 -109 -86 -184 -196 -184zM252 413c60 0 97 56 97 120c0 80 -45 153 -114 153c-43 0 -99 -37 -99 -125c0 -69 54 -148 116 -148z" />
    <glyph glyph-name="one.superior" horiz-adv-x="360" 
d="M146 491v39c0 27 1 105 -3 125c-22 -1 -54 -5 -92 -10l-11 19c29 7 143 36 191 52c-3 -25 -10 -115 -10 -181v-33c0 -77 4 -162 7 -180c13 -3 71 -9 84 -11l4 -21c-17 1 -102 4 -131 4c-34 0 -127 -3 -144 -4l2 21c15 2 85 8 98 11c5 26 5 111 5 169z" />
    <glyph glyph-name="two.superior" horiz-adv-x="410" 
d="M342 247l-19 4l-4 43h-285c44 36 82 73 122 109c51 47 106 108 106 180c0 62 -47 100 -96 100c-21 0 -49 -6 -59 -14l-15 -83l-20 -4c5 59 12 116 12 165l18 -5l5 -35c8 2 21 4 36 6c14 2 31 3 47 3c104 0 156 -45 156 -107c0 -59 -35 -118 -118 -189
c-33 -28 -67 -53 -100 -75v-2h54c70 0 122 9 143 21l18 56l20 2c-11 -44 -18 -131 -21 -175z" />
    <glyph glyph-name="three.superior" horiz-adv-x="420" 
d="M195 708h157c-33 -34 -111 -118 -134 -152c91 -19 139 -63 139 -111c0 -47 -24 -92 -75 -125c-37 -23 -83 -34 -131 -34c-21 0 -39 1 -61 5l-10 -23l-19 -2c8 32 12 82 16 132l19 -7v-48c22 -20 48 -25 70 -25c68 0 113 33 113 91c0 68 -70 104 -130 113
c19 24 85 102 110 134h-81c-29 0 -54 -3 -73 -10l-10 -37l-22 -5c6 33 10 85 14 164l20 -9v-48c15 -3 49 -3 88 -3z" />
    <glyph glyph-name="uni2010" unicode="&#x2010;" horiz-adv-x="450" 
d="M78 400h302l-13 -48c-49 0 -224 -17 -297 -33z" />
    <glyph glyph-name="A.superior" horiz-adv-x="460" 
d="M263 387l3 19c17 2 35 4 47 7c-6 14 -37 89 -44 101c-21 2 -95 -7 -115 -8c-4 -8 -25 -68 -29 -93c11 -3 22 -5 38 -7l2 -19c-22 1 -63 3 -77 3c-18 0 -52 -1 -65 -3l1 19c15 2 27 4 40 7c20 19 125 257 123 265c-7 2 -21 4 -33 5v20c15 -1 56 -3 72 -3c13 0 63 2 90 3
l-2 -20c-13 -1 -26 -3 -37 -5c4 -11 33 -80 53 -127c15 -34 48 -108 67 -138c14 -3 29 -5 44 -7l1 -19c-13 1 -68 3 -94 3c-15 0 -71 -2 -85 -3zM163 536h100c-16 40 -41 104 -52 130c-14 -35 -37 -103 -48 -130z" />
    <glyph glyph-name="O.superior" horiz-adv-x="490" 
d="M239 382c-47 0 -98 8 -140 50c-36 36 -44 74 -44 110c0 89 74 174 199 174c49 0 88 -7 127 -39c35 -28 54 -71 54 -111c0 -109 -86 -184 -196 -184zM252 413c60 0 97 56 97 120c0 80 -45 153 -114 153c-43 0 -99 -37 -99 -125c0 -69 54 -148 116 -148z" />
    </font>
</defs>
</svg>
